<svg width="87" height="80" viewBox="0 0 87 80" fill="none" xmlns="http://www.w3.org/2000/svg">
<ellipse cx="32.0209" cy="56.7165" rx="1.8125" ry="1.79104" fill="#2DAFD7" fill-opacity="0.3"/>
<ellipse cx="32.0209" cy="50.7462" rx="1.8125" ry="1.79104" fill="#2DAFD7" fill-opacity="0.3"/>
<ellipse cx="32.0209" cy="44.7762" rx="1.8125" ry="1.79104" fill="#2DAFD7" fill-opacity="0.3"/>
<ellipse cx="32.0209" cy="38.8061" rx="1.8125" ry="1.79104" fill="#2DAFD7" fill-opacity="0.3"/>
<ellipse cx="32.0209" cy="32.8357" rx="1.8125" ry="1.79104" fill="#2DAFD7" fill-opacity="0.3"/>
<ellipse cx="32.0209" cy="26.8656" rx="1.8125" ry="1.79104" fill="#2DAFD7" fill-opacity="0.3"/>
<ellipse cx="32.0209" cy="20.8955" rx="1.8125" ry="1.79104" fill="#2DAFD7" fill-opacity="0.3"/>
<ellipse cx="26.5833" cy="20.2985" rx="1.20833" ry="1.19403" fill="#2DAFD7" fill-opacity="0.3"/>
<ellipse cx="20.5417" cy="20.2985" rx="1.20833" ry="1.19403" fill="#2DAFD7" fill-opacity="0.3"/>
<ellipse cx="15.1042" cy="19.7015" rx="0.604167" ry="0.597015" fill="#2DAFD7" fill-opacity="0.3"/>
<ellipse cx="19.9375" cy="16.1195" rx="0.604167" ry="0.597015" fill="#2DAFD7" fill-opacity="0.3"/>
<ellipse cx="67.0625" cy="16.1195" rx="0.604167" ry="0.597015" fill="#2DAFD7" fill-opacity="0.3"/>
<ellipse cx="71.8958" cy="19.7015" rx="0.604167" ry="0.597015" fill="#2DAFD7" fill-opacity="0.3"/>
<ellipse cx="15.1042" cy="31.6417" rx="0.604167" ry="0.597015" fill="#2DAFD7" fill-opacity="0.3"/>
<ellipse cx="10.2708" cy="31.6417" rx="0.604167" ry="0.597015" fill="#2DAFD7" fill-opacity="0.3"/>
<ellipse cx="5.43754" cy="31.6417" rx="0.604167" ry="0.597015" fill="#2DAFD7" fill-opacity="0.3"/>
<ellipse cx="71.8958" cy="31.6417" rx="0.604167" ry="0.597015" fill="#2DAFD7" fill-opacity="0.3"/>
<ellipse cx="76.7292" cy="31.6417" rx="0.604167" ry="0.597015" fill="#2DAFD7" fill-opacity="0.3"/>
<ellipse cx="81.5625" cy="31.6417" rx="0.604167" ry="0.597015" fill="#2DAFD7" fill-opacity="0.3"/>
<ellipse cx="15.1042" cy="43.5821" rx="0.604167" ry="0.597015" fill="#2DAFD7" fill-opacity="0.3"/>
<ellipse cx="10.2708" cy="43.5821" rx="0.604167" ry="0.597015" fill="#2DAFD7" fill-opacity="0.3"/>
<ellipse cx="5.43754" cy="43.5821" rx="0.604167" ry="0.597015" fill="#2DAFD7" fill-opacity="0.3"/>
<ellipse cx="0.604167" cy="43.5821" rx="0.604167" ry="0.597015" fill="#2DAFD7" fill-opacity="0.3"/>
<ellipse cx="71.8958" cy="43.5821" rx="0.604167" ry="0.597015" fill="#2DAFD7" fill-opacity="0.3"/>
<ellipse cx="76.7292" cy="43.5821" rx="0.604167" ry="0.597015" fill="#2DAFD7" fill-opacity="0.3"/>
<ellipse cx="81.5625" cy="43.5821" rx="0.604167" ry="0.597015" fill="#2DAFD7" fill-opacity="0.3"/>
<ellipse cx="86.3958" cy="43.5821" rx="0.604167" ry="0.597015" fill="#2DAFD7" fill-opacity="0.3"/>
<ellipse cx="15.1042" cy="55.5224" rx="0.604167" ry="0.597015" fill="#2DAFD7" fill-opacity="0.3"/>
<ellipse cx="10.2708" cy="55.5224" rx="0.604167" ry="0.597015" fill="#2DAFD7" fill-opacity="0.3"/>
<ellipse cx="44.1042" cy="73.4328" rx="0.604167" ry="0.597015" fill="#2DAFD7" fill-opacity="0.3"/>
<ellipse cx="44.1042" cy="73.4328" rx="0.604167" ry="0.597015" fill="#2DAFD7" fill-opacity="0.3"/>
<ellipse cx="36.8542" cy="73.4328" rx="0.604167" ry="0.597015" fill="#2DAFD7" fill-opacity="0.3"/>
<ellipse cx="36.8542" cy="73.4328" rx="0.604167" ry="0.597015" fill="#2DAFD7" fill-opacity="0.3"/>
<ellipse cx="30.8125" cy="73.4328" rx="0.604167" ry="0.597015" fill="#2DAFD7" fill-opacity="0.3"/>
<ellipse cx="25.9792" cy="73.4328" rx="0.604167" ry="0.597015" fill="#2DAFD7" fill-opacity="0.3"/>
<ellipse cx="71.8958" cy="55.5224" rx="0.604167" ry="0.597015" fill="#2DAFD7" fill-opacity="0.3"/>
<ellipse cx="76.7292" cy="55.5224" rx="0.604167" ry="0.597015" fill="#2DAFD7" fill-opacity="0.3"/>
<ellipse cx="67.0625" cy="55.5224" rx="0.604167" ry="0.597015" fill="#2DAFD7" fill-opacity="0.3"/>
<ellipse cx="19.9375" cy="55.5224" rx="0.604167" ry="0.597015" fill="#2DAFD7" fill-opacity="0.3"/>
<ellipse cx="50.1458" cy="73.4328" rx="0.604167" ry="0.597015" fill="#2DAFD7" fill-opacity="0.3"/>
<ellipse cx="50.1458" cy="73.4328" rx="0.604167" ry="0.597015" fill="#2DAFD7" fill-opacity="0.3"/>
<ellipse cx="56.1875" cy="73.4328" rx="0.604167" ry="0.597015" fill="#2DAFD7" fill-opacity="0.3"/>
<ellipse cx="62.2292" cy="73.4328" rx="0.604167" ry="0.597015" fill="#2DAFD7" fill-opacity="0.3"/>
<ellipse cx="50.1458" cy="79.403" rx="0.604167" ry="0.597015" fill="#2DAFD7" fill-opacity="0.3"/>
<ellipse cx="50.1458" cy="79.403" rx="0.604167" ry="0.597015" fill="#2DAFD7" fill-opacity="0.3"/>
<ellipse cx="50.1458" cy="67.4626" rx="0.604167" ry="0.597015" fill="#2DAFD7" fill-opacity="0.3"/>
<ellipse cx="50.1458" cy="10.1493" rx="0.604167" ry="0.597015" fill="#2DAFD7" fill-opacity="0.3"/>
<ellipse cx="50.1458" cy="5.37314" rx="0.604167" ry="0.597015" fill="#2DAFD7" fill-opacity="0.3"/>
<ellipse cx="50.1458" cy="0.597015" rx="0.604167" ry="0.597015" fill="#2DAFD7" fill-opacity="0.3"/>
<ellipse cx="50.1458" cy="67.4626" rx="0.604167" ry="0.597015" fill="#2DAFD7" fill-opacity="0.3"/>
<ellipse cx="50.1458" cy="10.1493" rx="0.604167" ry="0.597015" fill="#2DAFD7" fill-opacity="0.3"/>
<ellipse cx="50.1458" cy="5.37314" rx="0.604167" ry="0.597015" fill="#2DAFD7" fill-opacity="0.3"/>
<ellipse cx="50.1458" cy="0.597015" rx="0.604167" ry="0.597015" fill="#2DAFD7" fill-opacity="0.3"/>
<ellipse cx="56.1875" cy="67.4626" rx="0.604167" ry="0.597015" fill="#2DAFD7" fill-opacity="0.3"/>
<ellipse cx="56.1875" cy="10.1493" rx="0.604167" ry="0.597015" fill="#2DAFD7" fill-opacity="0.3"/>
<ellipse cx="56.1875" cy="5.37314" rx="0.604167" ry="0.597015" fill="#2DAFD7" fill-opacity="0.3"/>
<ellipse cx="62.2292" cy="67.4626" rx="0.604167" ry="0.597015" fill="#2DAFD7" fill-opacity="0.3"/>
<ellipse cx="62.2292" cy="10.1493" rx="0.604167" ry="0.597015" fill="#2DAFD7" fill-opacity="0.3"/>
<ellipse cx="62.2292" cy="5.37314" rx="0.604167" ry="0.597015" fill="#2DAFD7" fill-opacity="0.3"/>
<ellipse cx="67.0625" cy="67.4626" rx="0.604167" ry="0.597015" fill="#2DAFD7" fill-opacity="0.3"/>
<ellipse cx="67.0625" cy="10.1493" rx="0.604167" ry="0.597015" fill="#2DAFD7" fill-opacity="0.3"/>
<ellipse cx="67.0625" cy="67.4626" rx="0.604167" ry="0.597015" fill="#2DAFD7" fill-opacity="0.3"/>
<ellipse cx="67.0625" cy="10.1493" rx="0.604167" ry="0.597015" fill="#2DAFD7" fill-opacity="0.3"/>
<ellipse cx="15.1042" cy="25.6716" rx="0.604167" ry="0.597015" fill="#2DAFD7" fill-opacity="0.3"/>
<ellipse cx="10.2708" cy="25.6716" rx="0.604167" ry="0.597015" fill="#2DAFD7" fill-opacity="0.3"/>
<ellipse cx="71.8958" cy="25.6716" rx="0.604167" ry="0.597015" fill="#2DAFD7" fill-opacity="0.3"/>
<ellipse cx="76.7292" cy="25.6716" rx="0.604167" ry="0.597015" fill="#2DAFD7" fill-opacity="0.3"/>
<ellipse cx="15.1042" cy="37.612" rx="0.604167" ry="0.597015" fill="#2DAFD7" fill-opacity="0.3"/>
<ellipse cx="10.2708" cy="37.612" rx="0.604167" ry="0.597015" fill="#2DAFD7" fill-opacity="0.3"/>
<ellipse cx="5.43754" cy="37.612" rx="0.604167" ry="0.597015" fill="#2DAFD7" fill-opacity="0.3"/>
<ellipse cx="0.604167" cy="37.612" rx="0.604167" ry="0.597015" fill="#2DAFD7" fill-opacity="0.3"/>
<ellipse cx="71.8958" cy="37.612" rx="0.604167" ry="0.597015" fill="#2DAFD7" fill-opacity="0.3"/>
<ellipse cx="76.7292" cy="37.612" rx="0.604167" ry="0.597015" fill="#2DAFD7" fill-opacity="0.3"/>
<ellipse cx="81.5625" cy="37.612" rx="0.604167" ry="0.597015" fill="#2DAFD7" fill-opacity="0.3"/>
<ellipse cx="86.3958" cy="37.612" rx="0.604167" ry="0.597015" fill="#2DAFD7" fill-opacity="0.3"/>
<ellipse cx="15.1042" cy="49.5522" rx="0.604167" ry="0.597015" fill="#2DAFD7" fill-opacity="0.3"/>
<ellipse cx="10.2708" cy="49.5522" rx="0.604167" ry="0.597015" fill="#2DAFD7" fill-opacity="0.3"/>
<ellipse cx="5.43754" cy="49.5522" rx="0.604167" ry="0.597015" fill="#2DAFD7" fill-opacity="0.3"/>
<ellipse cx="44.1042" cy="67.4626" rx="0.604167" ry="0.597015" fill="#2DAFD7" fill-opacity="0.3"/>
<ellipse cx="44.1042" cy="10.1493" rx="0.604167" ry="0.597015" fill="#2DAFD7" fill-opacity="0.3"/>
<ellipse cx="44.1042" cy="5.37314" rx="0.604167" ry="0.597015" fill="#2DAFD7" fill-opacity="0.3"/>
<ellipse cx="44.1042" cy="0.597015" rx="0.604167" ry="0.597015" fill="#2DAFD7" fill-opacity="0.3"/>
<ellipse cx="44.1042" cy="67.4626" rx="0.604167" ry="0.597015" fill="#2DAFD7" fill-opacity="0.3"/>
<ellipse cx="44.1042" cy="10.1493" rx="0.604167" ry="0.597015" fill="#2DAFD7" fill-opacity="0.3"/>
<ellipse cx="44.1042" cy="5.37314" rx="0.604167" ry="0.597015" fill="#2DAFD7" fill-opacity="0.3"/>
<ellipse cx="44.1042" cy="0.597015" rx="0.604167" ry="0.597015" fill="#2DAFD7" fill-opacity="0.3"/>
<ellipse cx="36.8542" cy="67.4626" rx="0.604167" ry="0.597015" fill="#2DAFD7" fill-opacity="0.3"/>
<ellipse cx="38.0625" cy="10.1493" rx="0.604167" ry="0.597015" fill="#2DAFD7" fill-opacity="0.3"/>
<ellipse cx="38.0625" cy="5.37314" rx="0.604167" ry="0.597015" fill="#2DAFD7" fill-opacity="0.3"/>
<ellipse cx="38.0625" cy="0.597015" rx="0.604167" ry="0.597015" fill="#2DAFD7" fill-opacity="0.3"/>
<ellipse cx="36.8542" cy="67.4626" rx="0.604167" ry="0.597015" fill="#2DAFD7" fill-opacity="0.3"/>
<ellipse cx="38.0625" cy="10.1493" rx="0.604167" ry="0.597015" fill="#2DAFD7" fill-opacity="0.3"/>
<ellipse cx="38.0625" cy="5.37314" rx="0.604167" ry="0.597015" fill="#2DAFD7" fill-opacity="0.3"/>
<ellipse cx="38.0625" cy="0.597015" rx="0.604167" ry="0.597015" fill="#2DAFD7" fill-opacity="0.3"/>
<ellipse cx="30.8125" cy="67.4626" rx="0.604167" ry="0.597015" fill="#2DAFD7" fill-opacity="0.3"/>
<ellipse cx="30.8125" cy="10.1493" rx="0.604167" ry="0.597015" fill="#2DAFD7" fill-opacity="0.3"/>
<ellipse cx="30.8125" cy="5.37314" rx="0.604167" ry="0.597015" fill="#2DAFD7" fill-opacity="0.3"/>
<ellipse cx="25.9792" cy="67.4626" rx="0.604167" ry="0.597015" fill="#2DAFD7" fill-opacity="0.3"/>
<ellipse cx="25.9792" cy="10.1493" rx="0.604167" ry="0.597015" fill="#2DAFD7" fill-opacity="0.3"/>
<ellipse cx="25.9792" cy="5.37314" rx="0.604167" ry="0.597015" fill="#2DAFD7" fill-opacity="0.3"/>
<ellipse cx="19.9375" cy="67.4626" rx="0.604167" ry="0.597015" fill="#2DAFD7" fill-opacity="0.3"/>
<ellipse cx="19.9375" cy="10.1493" rx="0.604167" ry="0.597015" fill="#2DAFD7" fill-opacity="0.3"/>
<ellipse cx="19.9375" cy="67.4626" rx="0.604167" ry="0.597015" fill="#2DAFD7" fill-opacity="0.3"/>
<ellipse cx="19.9375" cy="10.1493" rx="0.604167" ry="0.597015" fill="#2DAFD7" fill-opacity="0.3"/>
<ellipse cx="71.8958" cy="49.5522" rx="0.604167" ry="0.597015" fill="#2DAFD7" fill-opacity="0.3"/>
<ellipse cx="76.7292" cy="49.5522" rx="0.604167" ry="0.597015" fill="#2DAFD7" fill-opacity="0.3"/>
<ellipse cx="81.5625" cy="49.5522" rx="0.604167" ry="0.597015" fill="#2DAFD7" fill-opacity="0.3"/>
<ellipse cx="15.1042" cy="61.4925" rx="0.604167" ry="0.597015" fill="#2DAFD7" fill-opacity="0.3"/>
<ellipse cx="44.1042" cy="79.403" rx="0.604167" ry="0.597015" fill="#2DAFD7" fill-opacity="0.3"/>
<ellipse cx="44.1042" cy="79.403" rx="0.604167" ry="0.597015" fill="#2DAFD7" fill-opacity="0.3"/>
<ellipse cx="36.8542" cy="79.403" rx="0.604167" ry="0.597015" fill="#2DAFD7" fill-opacity="0.3"/>
<ellipse cx="36.8542" cy="79.403" rx="0.604167" ry="0.597015" fill="#2DAFD7" fill-opacity="0.3"/>
<ellipse cx="71.8958" cy="61.4925" rx="0.604167" ry="0.597015" fill="#2DAFD7" fill-opacity="0.3"/>
<ellipse cx="67.0625" cy="61.4925" rx="0.604167" ry="0.597015" fill="#2DAFD7" fill-opacity="0.3"/>
<ellipse cx="19.9375" cy="61.4925" rx="0.604167" ry="0.597015" fill="#2DAFD7" fill-opacity="0.3"/>
<ellipse cx="66.4583" cy="20.2985" rx="1.20833" ry="1.19403" fill="#2DAFD7" fill-opacity="0.3"/>
<ellipse cx="61.625" cy="20.2985" rx="1.20833" ry="1.19403" fill="#2DAFD7" fill-opacity="0.3"/>
<ellipse cx="26.5833" cy="32.2387" rx="1.20833" ry="1.19403" fill="#2DAFD7" fill-opacity="0.3"/>
<ellipse cx="20.5417" cy="32.2387" rx="1.20833" ry="1.19403" fill="#2DAFD7" fill-opacity="0.3"/>
<ellipse cx="66.4583" cy="32.2387" rx="1.20833" ry="1.19403" fill="#2DAFD7" fill-opacity="0.3"/>
<ellipse cx="61.625" cy="32.2387" rx="1.20833" ry="1.19403" fill="#2DAFD7" fill-opacity="0.3"/>
<ellipse cx="26.5833" cy="44.1791" rx="1.20833" ry="1.19403" fill="#2DAFD7" fill-opacity="0.3"/>
<ellipse cx="20.5417" cy="44.1791" rx="1.20833" ry="1.19403" fill="#2DAFD7" fill-opacity="0.3"/>
<ellipse cx="66.4583" cy="44.1791" rx="1.20833" ry="1.19403" fill="#2DAFD7" fill-opacity="0.3"/>
<ellipse cx="61.625" cy="44.1791" rx="1.20833" ry="1.19403" fill="#2DAFD7" fill-opacity="0.3"/>
<ellipse cx="26.5833" cy="56.1194" rx="1.20833" ry="1.19403" fill="#2DAFD7" fill-opacity="0.3"/>
<ellipse cx="61.625" cy="56.1194" rx="1.20833" ry="1.19403" fill="#2DAFD7" fill-opacity="0.3"/>
<ellipse cx="26.5833" cy="26.2686" rx="1.20833" ry="1.19403" fill="#2DAFD7" fill-opacity="0.3"/>
<ellipse cx="20.5417" cy="26.2686" rx="1.20833" ry="1.19403" fill="#2DAFD7" fill-opacity="0.3"/>
<ellipse cx="66.4583" cy="26.2686" rx="1.20833" ry="1.19403" fill="#2DAFD7" fill-opacity="0.3"/>
<ellipse cx="61.625" cy="26.2686" rx="1.20833" ry="1.19403" fill="#2DAFD7" fill-opacity="0.3"/>
<ellipse cx="26.5833" cy="38.209" rx="1.20833" ry="1.19403" fill="#2DAFD7" fill-opacity="0.3"/>
<ellipse cx="20.5417" cy="38.209" rx="1.20833" ry="1.19403" fill="#2DAFD7" fill-opacity="0.3"/>
<ellipse cx="66.4583" cy="38.209" rx="1.20833" ry="1.19403" fill="#2DAFD7" fill-opacity="0.3"/>
<ellipse cx="61.625" cy="38.209" rx="1.20833" ry="1.19403" fill="#2DAFD7" fill-opacity="0.3"/>
<ellipse cx="26.5833" cy="50.1492" rx="1.20833" ry="1.19403" fill="#2DAFD7" fill-opacity="0.3"/>
<ellipse cx="20.5417" cy="50.1492" rx="1.20833" ry="1.19403" fill="#2DAFD7" fill-opacity="0.3"/>
<ellipse cx="66.4583" cy="50.1492" rx="1.20833" ry="1.19403" fill="#2DAFD7" fill-opacity="0.3"/>
<ellipse cx="61.625" cy="50.1492" rx="1.20833" ry="1.19403" fill="#2DAFD7" fill-opacity="0.3"/>
<ellipse cx="26.5833" cy="62.0895" rx="1.20833" ry="1.19403" fill="#2DAFD7" fill-opacity="0.3"/>
<ellipse cx="26.5833" cy="15.5224" rx="1.20833" ry="1.19403" fill="#2DAFD7" fill-opacity="0.3"/>
<ellipse cx="61.625" cy="62.0895" rx="1.20833" ry="1.19403" fill="#2DAFD7" fill-opacity="0.3"/>
<ellipse cx="61.625" cy="15.5224" rx="1.20833" ry="1.19403" fill="#2DAFD7" fill-opacity="0.3"/>
<ellipse cx="37.4583" cy="62.0895" rx="1.20833" ry="1.19403" fill="#2DAFD7" fill-opacity="0.3"/>
<ellipse cx="37.4583" cy="15.5224" rx="1.20833" ry="1.19403" fill="#2DAFD7" fill-opacity="0.3"/>
<ellipse cx="49.5417" cy="62.0895" rx="1.20833" ry="1.19403" fill="#2DAFD7" fill-opacity="0.3"/>
<ellipse cx="49.5417" cy="15.5224" rx="1.20833" ry="1.19403" fill="#2DAFD7" fill-opacity="0.3"/>
<ellipse cx="31.4167" cy="62.0895" rx="1.20833" ry="1.19403" fill="#2DAFD7" fill-opacity="0.3"/>
<ellipse cx="31.4167" cy="15.5224" rx="1.20833" ry="1.19403" fill="#2DAFD7" fill-opacity="0.3"/>
<ellipse cx="43.5" cy="62.0895" rx="1.20833" ry="1.19403" fill="#2DAFD7" fill-opacity="0.3"/>
<ellipse cx="43.5" cy="15.5224" rx="1.20833" ry="1.19403" fill="#2DAFD7" fill-opacity="0.3"/>
<ellipse cx="55.5833" cy="62.0895" rx="1.20833" ry="1.19403" fill="#2DAFD7" fill-opacity="0.3"/>
<ellipse cx="55.5833" cy="15.5224" rx="1.20833" ry="1.19403" fill="#2DAFD7" fill-opacity="0.3"/>
<ellipse cx="38.0625" cy="56.7165" rx="1.8125" ry="1.79104" fill="#2DAFD7" fill-opacity="0.3"/>
<ellipse cx="38.0625" cy="50.7462" rx="1.8125" ry="1.79104" fill="#2DAFD7" fill-opacity="0.3"/>
<ellipse cx="38.0625" cy="44.7762" rx="1.8125" ry="1.79104" fill="#2DAFD7" fill-opacity="0.3"/>
<ellipse cx="38.0625" cy="38.8061" rx="1.8125" ry="1.79104" fill="#2DAFD7" fill-opacity="0.3"/>
<ellipse cx="38.0625" cy="32.8357" rx="1.8125" ry="1.79104" fill="#2DAFD7" fill-opacity="0.3"/>
<ellipse cx="38.0625" cy="26.8656" rx="1.8125" ry="1.79104" fill="#2DAFD7" fill-opacity="0.3"/>
<ellipse cx="38.0625" cy="20.8955" rx="1.8125" ry="1.79104" fill="#2DAFD7" fill-opacity="0.3"/>
<ellipse cx="44.1041" cy="56.7165" rx="1.8125" ry="1.79104" fill="#2DAFD7" fill-opacity="0.3"/>
<ellipse cx="44.1041" cy="50.7462" rx="1.8125" ry="1.79104" fill="#2DAFD7" fill-opacity="0.3"/>
<ellipse cx="44.1041" cy="44.7762" rx="1.8125" ry="1.79104" fill="#2DAFD7" fill-opacity="0.3"/>
<ellipse cx="44.1041" cy="38.8061" rx="1.8125" ry="1.79104" fill="#2DAFD7" fill-opacity="0.3"/>
<ellipse cx="44.1041" cy="32.8357" rx="1.8125" ry="1.79104" fill="#2DAFD7" fill-opacity="0.3"/>
<ellipse cx="44.1041" cy="26.8656" rx="1.8125" ry="1.79104" fill="#2DAFD7" fill-opacity="0.3"/>
<ellipse cx="44.1041" cy="20.8955" rx="1.8125" ry="1.79104" fill="#2DAFD7" fill-opacity="0.3"/>
<ellipse cx="50.1459" cy="56.7165" rx="1.8125" ry="1.79104" fill="#2DAFD7" fill-opacity="0.3"/>
<ellipse cx="50.1459" cy="50.7462" rx="1.8125" ry="1.79104" fill="#2DAFD7" fill-opacity="0.3"/>
<ellipse cx="50.1459" cy="44.7762" rx="1.8125" ry="1.79104" fill="#2DAFD7" fill-opacity="0.3"/>
<ellipse cx="50.1459" cy="38.8061" rx="1.8125" ry="1.79104" fill="#2DAFD7" fill-opacity="0.3"/>
<ellipse cx="50.1459" cy="32.8357" rx="1.8125" ry="1.79104" fill="#2DAFD7" fill-opacity="0.3"/>
<ellipse cx="50.1459" cy="26.8656" rx="1.8125" ry="1.79104" fill="#2DAFD7" fill-opacity="0.3"/>
<ellipse cx="50.1459" cy="20.8955" rx="1.8125" ry="1.79104" fill="#2DAFD7" fill-opacity="0.3"/>
<ellipse cx="56.1875" cy="56.7165" rx="1.8125" ry="1.79104" fill="#2DAFD7" fill-opacity="0.3"/>
<ellipse cx="56.1875" cy="50.7462" rx="1.8125" ry="1.79104" fill="#2DAFD7" fill-opacity="0.3"/>
<ellipse cx="56.1875" cy="44.7762" rx="1.8125" ry="1.79104" fill="#2DAFD7" fill-opacity="0.3"/>
<ellipse cx="56.1875" cy="38.8061" rx="1.8125" ry="1.79104" fill="#2DAFD7" fill-opacity="0.3"/>
<ellipse cx="56.1875" cy="32.8357" rx="1.8125" ry="1.79104" fill="#2DAFD7" fill-opacity="0.3"/>
<ellipse cx="56.1875" cy="26.8656" rx="1.8125" ry="1.79104" fill="#2DAFD7" fill-opacity="0.3"/>
<ellipse cx="56.1875" cy="20.8955" rx="1.8125" ry="1.79104" fill="#2DAFD7" fill-opacity="0.3"/>
</svg>
