<svg width="24" height="20" viewBox="0 0 24 20" fill="none" xmlns="http://www.w3.org/2000/svg">
<path d="M16.7251 5.31861C16.7251 7.96804 14.5189 10.1372 11.7706 10.1372C9.0223 10.1372 6.81604 7.96804 6.81604 5.31861C6.81604 2.66919 9.0223 0.5 11.7706 0.5C14.5189 0.5 16.7251 2.66919 16.7251 5.31861Z" stroke="#99BBC6"/>
<path d="M22.8764 19.3622C22.948 19.2867 22.9781 19.1957 22.9597 19.0941L23.4517 19.005L22.8764 19.3622ZM22.8764 19.3622C22.8006 19.442 22.6796 19.5 22.5386 19.5M22.8764 19.3622L22.5386 19.5M22.5386 19.5H22.5295M22.5386 19.5H22.5295M22.5295 19.5H22.5204M22.5295 19.5H22.5204M22.5204 19.5H22.5114M22.5204 19.5H22.5114M22.5114 19.5H22.5025M22.5114 19.5H22.5025M22.5025 19.5H22.4936M22.5025 19.5H22.4936M22.4936 19.5H22.4848M22.4936 19.5H22.4848M22.4848 19.5H22.476M22.4848 19.5H22.476M22.476 19.5H22.4673M22.476 19.5H22.4673M22.4673 19.5H22.4586M22.4673 19.5H22.4586M22.4586 19.5H22.45M22.4586 19.5H22.45M22.45 19.5H22.4415M22.45 19.5H22.4415M22.4415 19.5H22.433M22.4415 19.5H22.433M22.433 19.5H22.4245M22.433 19.5H22.4245M22.4245 19.5H22.4161M22.4245 19.5H22.4161M22.4161 19.5H22.4078M22.4161 19.5H22.4078M22.4078 19.5H22.3995M22.4078 19.5H22.3995M22.3995 19.5H22.3912M22.3995 19.5H22.3912M22.3912 19.5H22.3831M22.3912 19.5H22.3831M22.3831 19.5H22.3749M22.3831 19.5H22.3749M22.3749 19.5H22.3668M22.3749 19.5H22.3668M22.3668 19.5H22.3588M22.3668 19.5H22.3588M22.3588 19.5H22.3508M22.3588 19.5H22.3508M22.3508 19.5H22.3429M22.3508 19.5H22.3429M22.3429 19.5H22.335M22.3429 19.5H22.335M22.335 19.5H22.3272M22.335 19.5H22.3272M22.3272 19.5H22.3194M22.3272 19.5H22.3194M22.3194 19.5H22.3117M22.3194 19.5H22.3117M22.3117 19.5H22.304M22.3117 19.5H22.304M22.304 19.5H22.2964M22.304 19.5H22.2964M22.2964 19.5H22.2888M22.2964 19.5H22.2888M22.2888 19.5H22.2813M22.2888 19.5H22.2813M22.2813 19.5H22.2738M22.2813 19.5H22.2738M22.2738 19.5H22.2663M22.2738 19.5H22.2663M22.2663 19.5H22.259M22.2663 19.5H22.259M22.259 19.5H22.2516M22.259 19.5H22.2516M22.2516 19.5H22.2443M22.2516 19.5H22.2443M22.2443 19.5H22.2371M22.2443 19.5H22.2371M22.2371 19.5H22.2299M22.2371 19.5H22.2299M22.2299 19.5H22.2227M22.2299 19.5H22.2227M22.2227 19.5H22.2156M22.2227 19.5H22.2156M22.2156 19.5H22.2086M22.2156 19.5H22.2086M22.2086 19.5H22.2016M22.2086 19.5H22.2016M22.2016 19.5H22.1946M22.2016 19.5H22.1946M22.1946 19.5H22.1877M22.1946 19.5H22.1877M22.1877 19.5H22.1808M22.1877 19.5H22.1808M22.1808 19.5H22.174M22.1808 19.5H22.174M22.174 19.5H22.1672M22.174 19.5H22.1672M22.1672 19.5H22.1605M22.1672 19.5H22.1605M22.1605 19.5H22.1538M22.1605 19.5H22.1538M22.1538 19.5H22.1471M22.1538 19.5H22.1471M22.1471 19.5H22.1405M22.1471 19.5H22.1405M22.1405 19.5H22.1339M22.1405 19.5H22.1339M22.1339 19.5H22.1274M22.1339 19.5H22.1274M22.1274 19.5H22.1209M22.1274 19.5H22.1209M22.1209 19.5H22.1145M22.1209 19.5H22.1145M22.1145 19.5H22.1081M22.1145 19.5H22.1081M22.1081 19.5H22.1018M22.1081 19.5H22.1018M22.1018 19.5H22.0954M22.1018 19.5H22.0954M22.0954 19.5H22.0892M22.0954 19.5H22.0892M22.0892 19.5H22.083M22.0892 19.5H22.083M22.083 19.5H22.0768M22.083 19.5H22.0768M22.0768 19.5H22.0706M22.0768 19.5H22.0706M22.0706 19.5H22.0645M22.0706 19.5H22.0645M22.0645 19.5H22.0585M22.0645 19.5H22.0585M22.0585 19.5H22.0524M22.0585 19.5H22.0524M22.0524 19.5H22.0464M22.0524 19.5H22.0464M22.0464 19.5H22.0405M22.0464 19.5H22.0405M22.0405 19.5H22.0346M22.0405 19.5H22.0346M22.0346 19.5H22.0287M22.0346 19.5H22.0287M22.0287 19.5H22.0229M22.0287 19.5H22.0229M22.0229 19.5H22.0171M22.0229 19.5H22.0171M22.0171 19.5H22.0114M22.0171 19.5H22.0114M22.0114 19.5H22.0057M22.0114 19.5H22.0057M22.0057 19.5H22M22.0057 19.5H22M22 19.5H21.9944M22 19.5H21.9944M21.9944 19.5H21.9888M21.9944 19.5H21.9888M21.9888 19.5H21.9832M21.9888 19.5H21.9832M21.9832 19.5H21.9777M21.9832 19.5H21.9777M21.9777 19.5H21.9722M21.9777 19.5H21.9722M21.9722 19.5H21.9667M21.9722 19.5H21.9667M21.9667 19.5H21.9613M21.9667 19.5H21.9613M21.9613 19.5H21.9559M21.9613 19.5H21.9559M21.9559 19.5H21.9506M21.9559 19.5H21.9506M21.9506 19.5H21.9453M21.9506 19.5H21.9453M21.9453 19.5H21.94M21.9453 19.5H21.94M21.94 19.5H21.9348M21.94 19.5H21.9348M21.9348 19.5H21.9296M21.9348 19.5H21.9296M21.9296 19.5H21.9244M21.9296 19.5H21.9244M21.9244 19.5H21.9193M21.9244 19.5H21.9193M21.9193 19.5H21.9142M21.9193 19.5H21.9142M21.9142 19.5H21.9091M21.9142 19.5H21.9091M21.9091 19.5H21.9041M21.9091 19.5H21.9041M21.9041 19.5H21.8991M21.9041 19.5H21.8991M21.8991 19.5H21.8941M21.8991 19.5H21.8941M21.8941 19.5H21.8891M21.8941 19.5H21.8891M21.8891 19.5H21.8842M21.8891 19.5H21.8842M21.8842 19.5H21.8794M21.8842 19.5H21.8794M21.8794 19.5H21.8745M21.8794 19.5H21.8745M21.8745 19.5H21.8697M21.8745 19.5H21.8697M21.8697 19.5H21.8649M21.8697 19.5H21.8649M21.8649 19.5H21.8602M21.8649 19.5H21.8602M21.8602 19.5H21.8555M21.8602 19.5H21.8555M21.8555 19.5H21.8508M21.8555 19.5H21.8508M21.8508 19.5H21.8461M21.8508 19.5H21.8461M21.8461 19.5H21.8415M21.8461 19.5H21.8415M21.8415 19.5H21.8369M21.8415 19.5H21.8369M21.8369 19.5H21.8323M21.8369 19.5H21.8323M21.8323 19.5H21.8278M21.8323 19.5H21.8278M21.8278 19.5H21.8233M21.8278 19.5H21.8233M21.8233 19.5H21.8188M21.8233 19.5H21.8188M21.8188 19.5H21.8144M21.8188 19.5H21.8144M21.8144 19.5H21.8099M21.8144 19.5H21.8099M21.8099 19.5H21.8055M21.8099 19.5H21.8055M21.8055 19.5H21.8012M21.8055 19.5H21.8012M21.8012 19.5H21.7968M21.8012 19.5H21.7968M21.7968 19.5H21.7925M21.7968 19.5H21.7925M21.7925 19.5H21.7882M21.7925 19.5H21.7882M21.7882 19.5H21.784M21.7882 19.5H21.784M21.784 19.5H21.7797M21.784 19.5H21.7797M21.7797 19.5H21.7755M21.7797 19.5H21.7755M21.7755 19.5H21.7713M21.7755 19.5H21.7713M21.7713 19.5H21.7672M21.7713 19.5H21.7672M21.7672 19.5H21.763M21.7672 19.5H21.763M21.763 19.5H21.7589M21.763 19.5H21.7589M21.7589 19.5H21.7548M21.7589 19.5H21.7548M21.7548 19.5H21.7508M21.7548 19.5H21.7508M21.7508 19.5H21.7467M21.7508 19.5H21.7467M21.7467 19.5H21.7427M21.7467 19.5H21.7427M21.7427 19.5H21.7388M21.7427 19.5H21.7388M21.7388 19.5H21.7348M21.7388 19.5H21.7348M21.7348 19.5H21.7308M21.7348 19.5H21.7308M21.7308 19.5H21.7269M21.7308 19.5H21.7269M21.7269 19.5H21.723M21.7269 19.5H21.723M21.723 19.5H21.7192M21.723 19.5H21.7192M21.7192 19.5H21.7153M21.7192 19.5H21.7153M21.7153 19.5H21.7115M21.7153 19.5H21.7115M21.7115 19.5H21.7077M21.7115 19.5H21.7077M21.7077 19.5H21.7039M21.7077 19.5H21.7039M21.7039 19.5H21.7001M21.7039 19.5H21.7001M21.7001 19.5H21.6964M21.7001 19.5H21.6964M21.6964 19.5H21.6927M21.6964 19.5H21.6927M21.6927 19.5H21.689M21.6927 19.5H21.689M21.689 19.5H21.6853M21.689 19.5H21.6853M21.6853 19.5H21.6816M21.6853 19.5H21.6816M21.6816 19.5H21.678M21.6816 19.5H21.678M21.678 19.5H21.6744M21.678 19.5H21.6744M21.6744 19.5H21.6708M21.6744 19.5H21.6708M21.6708 19.5H21.6672M21.6708 19.5H21.6672M21.6672 19.5H21.6636M21.6672 19.5H21.6636M21.6636 19.5H21.6601M21.6636 19.5H21.6601M21.6601 19.5H21.6565M21.6601 19.5H21.6565M21.6565 19.5H21.653M21.6565 19.5H21.653M21.653 19.5H21.6495M21.653 19.5H21.6495M21.6495 19.5H21.646M21.6495 19.5H21.646M21.646 19.5H21.6426M21.646 19.5H21.6426M21.6426 19.5H21.6391M21.6426 19.5H21.6391M21.6391 19.5H21.6357M21.6391 19.5H21.6357M21.6357 19.5H21.6323M21.6357 19.5H21.6323M21.6323 19.5H21.6289M21.6323 19.5H21.6289M21.6289 19.5H21.6255M21.6289 19.5H21.6255M21.6255 19.5H21.6222M21.6255 19.5H21.6222M21.6222 19.5H21.6188M21.6222 19.5H21.6188M21.6188 19.5H21.6155M21.6188 19.5H21.6155M21.6155 19.5H21.6122M21.6155 19.5H21.6122M21.6122 19.5H21.6089M21.6122 19.5H21.6089M21.6089 19.5H21.6056M21.6089 19.5H21.6056M21.6056 19.5H21.6023M21.6056 19.5H21.6023M21.6023 19.5H21.599M21.6023 19.5H21.599M21.599 19.5H21.5958M21.599 19.5H21.5958M21.5958 19.5H21.5926M21.5958 19.5H21.5926M21.5926 19.5H21.5893M21.5926 19.5H21.5893M21.5893 19.5H21.5861M21.5893 19.5H21.5861M21.5861 19.5H21.5829M21.5861 19.5H21.5829M21.5829 19.5H21.5797M21.5829 19.5H21.5797M21.5797 19.5H21.5766M21.5797 19.5H21.5766M21.5766 19.5H21.5734M21.5766 19.5H21.5734M21.5734 19.5H21.5703M21.5734 19.5H21.5703M21.5703 19.5H21.5671M21.5703 19.5H21.5671M21.5671 19.5H21.564M21.5671 19.5H21.564M21.564 19.5H21.5609M21.564 19.5H21.5609M21.5609 19.5H21.5578M21.5609 19.5H21.5578M21.5578 19.5H21.5547M21.5578 19.5H21.5547M21.5547 19.5H21.5516M21.5547 19.5H21.5516M21.5516 19.5H21.5485M21.5516 19.5H21.5485M21.5485 19.5H21.5455M21.5485 19.5H21.5455M21.5455 19.5H21.5424M21.5455 19.5H21.5424M21.5424 19.5H21.5393M21.5424 19.5H21.5393M21.5393 19.5H21.5363M21.5393 19.5H21.5363M21.5363 19.5H21.5333M21.5363 19.5H21.5333M21.5333 19.5H21.5302M21.5333 19.5H21.5302M21.5302 19.5H21.5272M21.5302 19.5H21.5272M21.5272 19.5H21.5242M21.5272 19.5H21.5242M21.5242 19.5H21.5212M21.5242 19.5H21.5212M21.5212 19.5H21.5182M21.5212 19.5H21.5182M21.5182 19.5H21.5152M21.5182 19.5H21.5152M21.5152 19.5H21.5123M21.5152 19.5H21.5123M21.5123 19.5H21.5093M21.5123 19.5H21.5093M21.5093 19.5H21.5063M21.5093 19.5H21.5063M21.5063 19.5H21.5034M21.5063 19.5H21.5034M21.5034 19.5H21.5004M21.5034 19.5H21.5004M21.5004 19.5H21.4974M21.5004 19.5H21.4974M21.4974 19.5H21.4945M21.4974 19.5H21.4945M21.4945 19.5H21.4916M21.4945 19.5H21.4916M21.4916 19.5H21.4886M21.4916 19.5H21.4886M21.4886 19.5H21.4857M21.4886 19.5H21.4857M21.4857 19.5H21.4827M21.4857 19.5H21.4827M21.4827 19.5H21.4798M21.4827 19.5H21.4798M21.4798 19.5H21.4769M21.4798 19.5H21.4769M21.4769 19.5H21.474M21.4769 19.5H21.474M21.474 19.5H21.4711M21.474 19.5H21.4711M21.4711 19.5H21.4682M21.4711 19.5H21.4682M21.4682 19.5H21.4652M21.4682 19.5H21.4652M21.4652 19.5H21.4623M21.4652 19.5H21.4623M21.4623 19.5H21.4594M21.4623 19.5H21.4594M21.4594 19.5H21.4565M21.4594 19.5H21.4565M21.4565 19.5H21.4536M21.4565 19.5H21.4536M21.4536 19.5H21.4507M21.4536 19.5H21.4507M21.4507 19.5H21.4478M21.4507 19.5H21.4478M21.4478 19.5H21.4449M21.4478 19.5H21.4449M21.4449 19.5H21.442M21.4449 19.5H21.442M21.442 19.5H21.4391M21.442 19.5H21.4391M21.4391 19.5H21.4362M21.4391 19.5H21.4362M21.4362 19.5H21.4333M21.4362 19.5H21.4333M21.4333 19.5H21.4304M21.4333 19.5H21.4304M21.4304 19.5H21.4275M21.4304 19.5H21.4275M21.4275 19.5H21.4246M21.4275 19.5H21.4246M21.4246 19.5H21.4217M21.4246 19.5H21.4217M21.4217 19.5H21.4188M21.4217 19.5H21.4188M21.4188 19.5H21.4159M21.4188 19.5H21.4159M21.4159 19.5H21.413M21.4159 19.5H21.413M21.413 19.5H21.4101M21.413 19.5H21.4101M21.4101 19.5H21.4071M21.4101 19.5H21.4071M21.4071 19.5H21.4042M21.4071 19.5H21.4042M21.4042 19.5H21.4013M21.4042 19.5H21.4013M21.4013 19.5H21.3984M21.4013 19.5H21.3984M21.3984 19.5H21.3954M21.3984 19.5H21.3954M21.3954 19.5H21.3925M21.3954 19.5H21.3925M21.3925 19.5H21.3896M21.3925 19.5H21.3896M21.3896 19.5H21.3866M21.3896 19.5H21.3866M21.3866 19.5H21.3837M21.3866 19.5H21.3837M21.3837 19.5H21.3807M21.3837 19.5H21.3807M21.3807 19.5H21.3778M21.3807 19.5H21.3778M21.3778 19.5H21.3748M21.3778 19.5H21.3748M21.3748 19.5H21.3718M21.3748 19.5H21.3718M21.3718 19.5H21.3689M21.3718 19.5H21.3689M21.3689 19.5H21.3659M21.3689 19.5H21.3659M21.3659 19.5H21.3629M21.3659 19.5H21.3629M21.3629 19.5H21.3599M21.3629 19.5H21.3599M21.3599 19.5H21.3569M21.3599 19.5H21.3569M21.3569 19.5H21.3539M21.3569 19.5H21.3539M21.3539 19.5H21.3509M21.3539 19.5H21.3509M21.3509 19.5H21.3479M21.3509 19.5H21.3479M21.3479 19.5H21.3448M21.3479 19.5H21.3448M21.3448 19.5H21.3418M21.3448 19.5H21.3418M21.3418 19.5H21.3387M21.3418 19.5H21.3387M21.3387 19.5H21.3357M21.3387 19.5H21.3357M21.3357 19.5H21.3326M21.3357 19.5H21.3326M21.3326 19.5H21.3295M21.3326 19.5H21.3295M21.3295 19.5H21.3264M21.3295 19.5H21.3264M21.3264 19.5H21.3233M21.3264 19.5H21.3233M21.3233 19.5H21.3202M21.3233 19.5H21.3202M21.3202 19.5H21.3171M21.3202 19.5H21.3171M21.3171 19.5H21.314M21.3171 19.5H21.314M21.314 19.5H21.3109M21.314 19.5H21.3109M21.3109 19.5H21.3077M21.3109 19.5H21.3077M21.3077 19.5H21.3046M21.3077 19.5H21.3046M21.3046 19.5H21.3014M21.3046 19.5H21.3014M21.3014 19.5H21.2982M21.3014 19.5H21.2982M21.2982 19.5H21.295M21.2982 19.5H21.295M21.295 19.5H21.2918M21.295 19.5H21.2918M21.2918 19.5H21.2886M21.2918 19.5H21.2886M21.2886 19.5H21.2853M21.2886 19.5H21.2853M21.2853 19.5H21.2821M21.2853 19.5H21.2821M21.2821 19.5H21.2788M21.2821 19.5H21.2788M21.2788 19.5H21.2756M21.2788 19.5H21.2756M21.2756 19.5H21.2723M21.2756 19.5H21.2723M21.2723 19.5H21.269M21.2723 19.5H21.269M21.269 19.5H21.2656M21.269 19.5H21.2656M21.2656 19.5H21.2623M21.2656 19.5H21.2623M21.2623 19.5H21.259M21.2623 19.5H21.259M21.259 19.5H21.2556M21.259 19.5H21.2556M21.2556 19.5H21.2522M21.2556 19.5H21.2522M21.2522 19.5H21.2488M21.2522 19.5H21.2488M21.2488 19.5H21.2454M21.2488 19.5H21.2454M21.2454 19.5H21.242M21.2454 19.5H21.242M21.242 19.5H21.2386M21.242 19.5H21.2386M21.2386 19.5H21.2351M21.2386 19.5H21.2351M21.2351 19.5H21.2316M21.2351 19.5H21.2316M21.2316 19.5H21.2281M21.2316 19.5H21.2281M21.2281 19.5H21.2246M21.2281 19.5H21.2246M21.2246 19.5H21.2211M21.2246 19.5H21.2211M21.2211 19.5H21.2175M21.2211 19.5H21.2175M21.2175 19.5H21.214M21.2175 19.5H21.214M21.214 19.5H21.2104M21.214 19.5H21.2104M21.2104 19.5H21.2068M21.2104 19.5H21.2068M21.2068 19.5H21.2032M21.2068 19.5H21.2032M21.2032 19.5H21.1995M21.2032 19.5H21.1995M21.1995 19.5H21.1959M21.1995 19.5H21.1959M21.1959 19.5H21.1922M21.1959 19.5H21.1922M21.1922 19.5H21.1885M21.1922 19.5H21.1885M21.1885 19.5H21.1848M21.1885 19.5H21.1848M21.1848 19.5H21.181M21.1848 19.5H21.181M21.181 19.5H21.1773M21.181 19.5H21.1773M21.1773 19.5H21.1735M21.1773 19.5H21.1735M21.1735 19.5H21.1697M21.1735 19.5H21.1697M21.1697 19.5H21.1659M21.1697 19.5H21.1659M21.1659 19.5H21.162M21.1659 19.5H21.162M21.162 19.5H21.1581M21.162 19.5H21.1581M21.1581 19.5H21.1542M21.1581 19.5H21.1542M21.1542 19.5H21.1503M21.1542 19.5H21.1503M21.1503 19.5H21.1464M21.1503 19.5H21.1464M21.1464 19.5H21.1424M21.1464 19.5H21.1424M21.1424 19.5H21.1384M21.1424 19.5H21.1384M21.1384 19.5H21.1344M21.1384 19.5H21.1344M21.1344 19.5H21.1304M21.1344 19.5H21.1304M21.1304 19.5H21.1263M21.1304 19.5H21.1263M21.1263 19.5H21.1223M21.1263 19.5H21.1223M21.1223 19.5H21.1181M21.1223 19.5H21.1181M21.1181 19.5H21.114M21.1181 19.5H21.114M21.114 19.5H21.1099M21.114 19.5H21.1099M21.1099 19.5H21.1057M21.1099 19.5H21.1057M21.1057 19.5H21.1015M21.1057 19.5H21.1015M21.1015 19.5H21.0972M21.1015 19.5H21.0972M21.0972 19.5H21.093M21.0972 19.5H21.093M21.093 19.5H21.0887M21.093 19.5H21.0887M21.0887 19.5H21.0844M21.0887 19.5H21.0844M21.0844 19.5H21.08M21.0844 19.5H21.08M21.08 19.5H21.0757M21.08 19.5H21.0757M21.0757 19.5H21.0713M21.0757 19.5H21.0713M21.0713 19.5H21.0668M21.0713 19.5H21.0668M21.0668 19.5H21.0624M21.0668 19.5H21.0624M21.0624 19.5H21.0579M21.0624 19.5H21.0579M21.0579 19.5H21.0534M21.0579 19.5H21.0534M21.0534 19.5H21.0489M21.0534 19.5H21.0489M21.0489 19.5H21.0443M21.0489 19.5H21.0443M21.0443 19.5H21.0397M21.0443 19.5H21.0397M21.0397 19.5H21.0351M21.0397 19.5H21.0351M21.0351 19.5H21.0304M21.0351 19.5H21.0304M21.0304 19.5H21.0257M21.0304 19.5H21.0257M21.0257 19.5H21.021M21.0257 19.5H21.021M21.021 19.5H21.0163M21.021 19.5H21.0163M21.0163 19.5H21.0115M21.0163 19.5H21.0115M21.0115 19.5H21.0067M21.0115 19.5H21.0067M21.0067 19.5H21.0019M21.0067 19.5H21.0019M21.0019 19.5H20.997M21.0019 19.5H20.997M20.997 19.5H20.9921M20.997 19.5H20.9921M20.9921 19.5H20.9871M20.9921 19.5H20.9871M20.9871 19.5H20.9822M20.9871 19.5H20.9822M20.9822 19.5H20.9772M20.9822 19.5H20.9772M20.9772 19.5H20.9721M20.9772 19.5H20.9721M20.9721 19.5H20.9671M20.9721 19.5H20.9671M20.9671 19.5H20.962M20.9671 19.5H20.962M20.962 19.5H20.9568M20.962 19.5H20.9568M20.9568 19.5H20.9517M20.9568 19.5H20.9517M20.9517 19.5H20.9465M20.9517 19.5H20.9465M20.9465 19.5H20.9412M20.9465 19.5H20.9412M20.9412 19.5H20.936M20.9412 19.5H20.936M20.936 19.5H20.9306M20.936 19.5H20.9306M20.9306 19.5H20.9253M20.9306 19.5H20.9253M20.9253 19.5H20.9199M20.9253 19.5H20.9199M20.9199 19.5H20.9145M20.9199 19.5H20.9145M20.9145 19.5H20.9091M20.9145 19.5H20.9091M20.9091 19.5H20.9036M20.9091 19.5H20.9036M20.9036 19.5H20.8981M20.9036 19.5H20.8981M20.8981 19.5H20.8925M20.8981 19.5H20.8925M20.8925 19.5H20.8869M20.8925 19.5H20.8869M20.8869 19.5H20.8813M20.8869 19.5H20.8813M20.8813 19.5H20.8756M20.8813 19.5H20.8756M20.8756 19.5H20.8699M20.8756 19.5H20.8699M20.8699 19.5H20.8641M20.8699 19.5H20.8641M20.8641 19.5H20.8584M20.8641 19.5H20.8584M20.8584 19.5H20.8525M20.8584 19.5H20.8525M20.8525 19.5H20.8467M20.8525 19.5H20.8467M20.8467 19.5H20.8408M20.8467 19.5H20.8408M20.8408 19.5H20.8348M20.8408 19.5H20.8348M20.8348 19.5H20.8289M20.8348 19.5H20.8289M20.8289 19.5H20.8228M20.8289 19.5H20.8228M20.8228 19.5H20.8168M20.8228 19.5H20.8168M20.8168 19.5H20.8107M20.8168 19.5H20.8107M20.8107 19.5H20.8045M20.8107 19.5H20.8045M20.8045 19.5H20.7983M20.8045 19.5H20.7983M20.7983 19.5H20.7921M20.7983 19.5H20.7921M20.7921 19.5H20.7859M20.7921 19.5H20.7859M20.7859 19.5H20.7795M20.7859 19.5H20.7795M20.7795 19.5H20.7732M20.7795 19.5H20.7732M20.7732 19.5H20.7668M20.7732 19.5H20.7668M20.7668 19.5H20.7604M20.7668 19.5H20.7604M20.7604 19.5H20.7539M20.7604 19.5H20.7539M20.7539 19.5H20.7474M20.7539 19.5H20.7474M20.7474 19.5H20.7408M20.7474 19.5H20.7408M20.7408 19.5H20.7342M20.7408 19.5H20.7342M20.7342 19.5H20.7276M20.7342 19.5H20.7276M20.7276 19.5H20.7209M20.7276 19.5H20.7209M20.7209 19.5H20.7141M20.7209 19.5H20.7141M20.7141 19.5H20.7074M20.7141 19.5H20.7074M20.7074 19.5H20.7005M20.7074 19.5H20.7005M20.7005 19.5H20.6937M20.7005 19.5H20.6937M20.6937 19.5H20.6867M20.6937 19.5H20.6867M20.6867 19.5H20.6798M20.6867 19.5H20.6798M20.6798 19.5H20.6728M20.6798 19.5H20.6728M20.6728 19.5H20.6657M20.6728 19.5H20.6657M20.6657 19.5H20.6586M20.6657 19.5H20.6586M20.6586 19.5H20.6515M20.6586 19.5H20.6515M20.6515 19.5H20.6443M20.6515 19.5H20.6443M20.6443 19.5H20.637M20.6443 19.5H20.637M20.637 19.5H20.6297M20.637 19.5H20.6297M20.6297 19.5H20.6224M20.6297 19.5H20.6224M20.6224 19.5H20.615M20.6224 19.5H20.615M20.615 19.5H20.6076M20.615 19.5H20.6076M20.6076 19.5H20.6001M20.6076 19.5H20.6001M20.6001 19.5H20.5926M20.6001 19.5H20.5926M20.5926 19.5H20.585M20.5926 19.5H20.585M20.585 19.5H20.5774M20.585 19.5H20.5774M20.5774 19.5H20.5697M20.5774 19.5H20.5697M20.5697 19.5H20.562M20.5697 19.5H20.562M20.562 19.5H20.5542M20.562 19.5H20.5542M20.5542 19.5H20.5464M20.5542 19.5H20.5464M20.5464 19.5H20.5385M20.5464 19.5H20.5385M20.5385 19.5H20.5306M20.5385 19.5H20.5306M20.5306 19.5H20.5226M20.5306 19.5H20.5226M20.5226 19.5H20.5146M20.5226 19.5H20.5146M20.5146 19.5H20.5065M20.5146 19.5H20.5065M20.5065 19.5H20.4983M20.5065 19.5H20.4983M20.4983 19.5H20.4902M20.4983 19.5H20.4902M20.4902 19.5H20.4819M20.4902 19.5H20.4819M20.4819 19.5H20.4736M20.4819 19.5H20.4736M20.4736 19.5H20.4653M20.4736 19.5H20.4653M20.4653 19.5H20.4569M20.4653 19.5H20.4569M20.4569 19.5H20.4485M20.4569 19.5H20.4485M20.4485 19.5H20.44M20.4485 19.5H20.44M20.44 19.5H20.4314M20.44 19.5H20.4314M20.4314 19.5H20.4228M20.4314 19.5H20.4228M20.4228 19.5H20.4141M20.4228 19.5H20.4141M20.4141 19.5H20.4054M20.4141 19.5H20.4054M20.4054 19.5H20.3966M20.4054 19.5H20.3966M20.3966 19.5H20.3878M20.3966 19.5H20.3878M20.3878 19.5H20.3789M20.3878 19.5H20.3789M20.3789 19.5H20.37M20.3789 19.5H20.37M20.37 19.5H20.361M20.37 19.5H20.361M20.361 19.5H20.352M20.361 19.5H20.352M20.352 19.5H20.3428M20.352 19.5H20.3428M20.3428 19.5H20.3337M20.3428 19.5H20.3337M20.3337 19.5H20.3245M20.3337 19.5H20.3245M20.3245 19.5H20.3152M20.3245 19.5H20.3152M20.3152 19.5H20.3059M20.3152 19.5H20.3059M20.3059 19.5H20.2965M20.3059 19.5H20.2965M20.2965 19.5H20.287M20.2965 19.5H20.287M20.287 19.5H20.2775M20.287 19.5H20.2775M20.2775 19.5H20.2679M20.2775 19.5H20.2679M20.2679 19.5H20.2583M20.2679 19.5H20.2583M20.2583 19.5H20.2486M20.2583 19.5H20.2486M20.2486 19.5H20.2389M20.2486 19.5H20.2389M20.2389 19.5H20.2291M20.2389 19.5H20.2291M20.2291 19.5H20.2192M20.2291 19.5H20.2192M20.2192 19.5H20.2093M20.2192 19.5H20.2093M20.2093 19.5H20.1993M20.2093 19.5H20.1993M20.1993 19.5H20.1893M20.1993 19.5H20.1893M20.1893 19.5H20.1792M20.1893 19.5H20.1792M20.1792 19.5H20.169M20.1792 19.5H20.169M20.169 19.5H20.1588M20.169 19.5H20.1588M20.1588 19.5H20.1485M20.1588 19.5H20.1485M20.1485 19.5H20.1382M20.1485 19.5H20.1382M20.1382 19.5H20.1278M20.1382 19.5H20.1278M20.1278 19.5H20.1173M20.1278 19.5H20.1173M20.1173 19.5H20.1067M20.1173 19.5H20.1067M20.1067 19.5H20.0962M20.1067 19.5H20.0962M20.0962 19.5H20.0855M20.0962 19.5H20.0855M20.0855 19.5H20.0748M20.0855 19.5H20.0748M20.0748 19.5H20.064M20.0748 19.5H20.064M20.064 19.5H20.0531M20.064 19.5H20.0531M20.0531 19.5H20.0422M20.0531 19.5H20.0422M20.0422 19.5H20.0312M20.0422 19.5H20.0312M20.0312 19.5H20.0202M20.0312 19.5H20.0202M20.0202 19.5H20.0091M20.0202 19.5H20.0091M20.0091 19.5H19.9979M20.0091 19.5H19.9979M19.9979 19.5H19.9867M19.9979 19.5H19.9867M19.9867 19.5H19.9754M19.9867 19.5H19.9754M19.9754 19.5H19.964M19.9754 19.5H19.964M19.964 19.5H19.9526M19.964 19.5H19.9526M19.9526 19.5H19.9411M19.9526 19.5H19.9411M19.9411 19.5H19.9295M19.9411 19.5H19.9295M19.9295 19.5H19.9179M19.9295 19.5H19.9179M19.9179 19.5H19.9062M19.9179 19.5H19.9062M19.9062 19.5H19.8944M19.9062 19.5H19.8944M19.8944 19.5H19.8826M19.8944 19.5H19.8826M19.8826 19.5H19.8707M19.8826 19.5H19.8707M19.8707 19.5H19.8587M19.8707 19.5H19.8587M19.8587 19.5H19.8466M19.8587 19.5H19.8466M19.8466 19.5H19.8345M19.8466 19.5H19.8345M19.8345 19.5H19.8224M19.8345 19.5H19.8224M19.8224 19.5H19.8101M19.8224 19.5H19.8101M19.8101 19.5H19.7978M19.8101 19.5H19.7978M19.7978 19.5H19.7854M19.7978 19.5H19.7854M19.7854 19.5H19.773M19.7854 19.5H19.773M19.773 19.5H19.7604M19.773 19.5H19.7604M19.7604 19.5H19.7478M19.7604 19.5H19.7478M19.7478 19.5H19.7352M19.7478 19.5H19.7352M19.7352 19.5H19.7224M19.7352 19.5H19.7224M19.7224 19.5H19.7096M19.7224 19.5H19.7096M19.7096 19.5H19.6967M19.7096 19.5H19.6967M19.6967 19.5H19.6838M19.6967 19.5H19.6838M19.6838 19.5H19.6708M19.6838 19.5H19.6708M19.6708 19.5H19.6577M19.6708 19.5H19.6577M19.6577 19.5H19.6445M19.6577 19.5H19.6445M19.6445 19.5H19.6312M19.6445 19.5H19.6312M19.6312 19.5H19.6179M19.6312 19.5H19.6179M19.6179 19.5H19.6045M19.6179 19.5H19.6045M19.6045 19.5H19.5911M19.6045 19.5H19.5911M19.5911 19.5H19.5775M19.5911 19.5H19.5775M19.5775 19.5H19.5639M19.5775 19.5H19.5639M19.5639 19.5H19.5503M19.5639 19.5H19.5503M19.5503 19.5H19.5365M19.5503 19.5H19.5365M19.5365 19.5H19.5236M19.5365 19.5H19.5236M19.5236 19.5H19.5108M19.5236 19.5H19.5108M19.5108 19.5H19.4979M19.5108 19.5H19.4979M19.4979 19.5H19.485M19.4979 19.5H19.485M19.485 19.5H19.4721M19.485 19.5H19.4721M19.4721 19.5H19.4592M19.4721 19.5H19.4592M19.4592 19.5H19.4463M19.4592 19.5H19.4463M19.4463 19.5H19.4333M19.4463 19.5H19.4333M19.4333 19.5H19.4204M19.4333 19.5H19.4204M19.4204 19.5H19.4075M19.4204 19.5H19.4075M19.4075 19.5H19.3945M19.4075 19.5H19.3945M19.3945 19.5H19.3815M19.3945 19.5H19.3815M19.3815 19.5H19.3686M19.3815 19.5H19.3686M19.3686 19.5H19.3556M19.3686 19.5H19.3556M19.3556 19.5H19.3426M19.3556 19.5H19.3426M19.3426 19.5H19.3296M19.3426 19.5H19.3296M19.3296 19.5H19.3166M19.3296 19.5H19.3166M19.3166 19.5H19.3036M19.3166 19.5H19.3036M19.3036 19.5H19.2906M19.3036 19.5H19.2906M19.2906 19.5H19.2776M19.2906 19.5H19.2776M19.2776 19.5H19.2645M19.2776 19.5H19.2645M19.2645 19.5H19.2515M19.2645 19.5H19.2515M19.2515 19.5H19.2384M19.2515 19.5H19.2384M19.2384 19.5H19.2254M19.2384 19.5H19.2254M19.2254 19.5H19.2123M19.2254 19.5H19.2123M19.2123 19.5H19.1992M19.2123 19.5H19.1992M19.1992 19.5H19.1861M19.1992 19.5H19.1861M19.1861 19.5H19.1731M19.1861 19.5H19.1731M19.1731 19.5H19.16M19.1731 19.5H19.16M19.16 19.5H19.1468M19.16 19.5H19.1468M19.1468 19.5H19.1337M19.1468 19.5H19.1337M19.1337 19.5H19.1206M19.1337 19.5H19.1206M19.1206 19.5H19.1075M19.1206 19.5H19.1075M19.1075 19.5H19.0943M19.1075 19.5H19.0943M19.0943 19.5H19.0812M19.0943 19.5H19.0812M19.0812 19.5H19.068M19.0812 19.5H19.068M19.068 19.5H19.0548M19.068 19.5H19.0548M19.0548 19.5H19.0416M19.0548 19.5H19.0416M19.0416 19.5H19.0284M19.0416 19.5H19.0284M19.0284 19.5H19.0152M19.0284 19.5H19.0152M19.0152 19.5H19.002M19.0152 19.5H19.002M19.002 19.5H18.9888M19.002 19.5H18.9888M18.9888 19.5H18.9756M18.9888 19.5H18.9756M18.9756 19.5H18.9624M18.9756 19.5H18.9624M18.9624 19.5H18.9491M18.9624 19.5H18.9491M18.9491 19.5H18.9359M18.9491 19.5H18.9359M18.9359 19.5H18.9226M18.9359 19.5H18.9226M18.9226 19.5H18.9094M18.9226 19.5H18.9094M18.9094 19.5H18.8961M18.9094 19.5H18.8961M18.8961 19.5H18.8828M18.8961 19.5H18.8828M18.8828 19.5H18.8695M18.8828 19.5H18.8695M18.8695 19.5H18.8562M18.8695 19.5H18.8562M18.8562 19.5H18.8429M18.8562 19.5H18.8429M18.8429 19.5H18.8296M18.8429 19.5H18.8296M18.8296 19.5H18.8163M18.8296 19.5H18.8163M18.8163 19.5H18.8029M18.8163 19.5H18.8029M18.8029 19.5H18.7896M18.8029 19.5H18.7896M18.7896 19.5H18.7762M18.7896 19.5H18.7762M18.7762 19.5H18.7629M18.7762 19.5H18.7629M18.7629 19.5H18.7495M18.7629 19.5H18.7495M18.7495 19.5H18.7361M18.7495 19.5H18.7361M18.7361 19.5H18.7227M18.7361 19.5H18.7227M18.7227 19.5H18.7093M18.7227 19.5H18.7093M18.7093 19.5H18.6959M18.7093 19.5H18.6959M18.6959 19.5H18.6825M18.6959 19.5H18.6825M18.6825 19.5H18.6691M18.6825 19.5H18.6691M18.6691 19.5H18.6557M18.6691 19.5H18.6557M18.6557 19.5H18.6422M18.6557 19.5H18.6422M18.6422 19.5H18.6288M18.6422 19.5H18.6288M18.6288 19.5H18.6153M18.6288 19.5H18.6153M18.6153 19.5H18.6019M18.6153 19.5H18.6019M18.6019 19.5H18.5884M18.6019 19.5H18.5884M18.5884 19.5H18.5749M18.5884 19.5H18.5749M18.5749 19.5H18.5614M18.5749 19.5H18.5614M18.5614 19.5H18.5479M18.5614 19.5H18.5479M18.5479 19.5H18.5344M18.5479 19.5H18.5344M18.5344 19.5H18.5209M18.5344 19.5H18.5209M18.5209 19.5H18.5074M18.5209 19.5H18.5074M18.5074 19.5H18.4938M18.5074 19.5H18.4938M18.4938 19.5H18.4803M18.4938 19.5H18.4803M18.4803 19.5H18.4667M18.4803 19.5H18.4667M18.4667 19.5H18.4532M18.4667 19.5H18.4532M18.4532 19.5H18.4396M18.4532 19.5H18.4396M18.4396 19.5H18.426M18.4396 19.5H18.426M18.426 19.5H18.4124M18.426 19.5H18.4124M18.4124 19.5H18.3988M18.4124 19.5H18.3988M18.3988 19.5H18.3852M18.3988 19.5H18.3852M18.3852 19.5H18.3716M18.3852 19.5H18.3716M18.3716 19.5H18.358M18.3716 19.5H18.358M18.358 19.5H18.3444M18.358 19.5H18.3444M18.3444 19.5H18.3307M18.3444 19.5H18.3307M18.3307 19.5H18.3171M18.3307 19.5H18.3171M18.3171 19.5H18.3034M18.3171 19.5H18.3034M18.3034 19.5H18.2898M18.3034 19.5H18.2898M18.2898 19.5H18.2761M18.2898 19.5H18.2761M18.2761 19.5H18.2624M18.2761 19.5H18.2624M18.2624 19.5H18.2487M18.2624 19.5H18.2487M18.2487 19.5H18.235M18.2487 19.5H18.235M18.235 19.5H18.2213M18.235 19.5H18.2213M18.2213 19.5H18.2076M18.2213 19.5H18.2076M18.2076 19.5H18.1939M18.2076 19.5H18.1939M18.1939 19.5H18.1801M18.1939 19.5H18.1801M18.1801 19.5H18.1664M18.1801 19.5H18.1664M18.1664 19.5H18.1526M18.1664 19.5H18.1526M18.1526 19.5H18.1389M18.1526 19.5H18.1389M18.1389 19.5H18.1251M18.1389 19.5H18.1251M18.1251 19.5H18.1113M18.1251 19.5H18.1113M18.1113 19.5H18.0975M18.1113 19.5H18.0975M18.0975 19.5H18.0837M18.0975 19.5H18.0837M18.0837 19.5H18.0699M18.0837 19.5H18.0699M18.0699 19.5H18.0561M18.0699 19.5H18.0561M18.0561 19.5H18.0423M18.0561 19.5H18.0423M18.0423 19.5H18.0285M18.0423 19.5H18.0285M18.0285 19.5H18.0146M18.0285 19.5H18.0146M18.0146 19.5H18.0008M18.0146 19.5H18.0008M18.0008 19.5H17.9869M18.0008 19.5H17.9869M17.9869 19.5H17.973M17.9869 19.5H17.973M17.973 19.5H17.9592M17.973 19.5H17.9592M17.9592 19.5H17.9453M17.9592 19.5H17.9453M17.9453 19.5H17.9314M17.9453 19.5H17.9314M17.9314 19.5H17.9175M17.9314 19.5H17.9175M17.9175 19.5H17.9036M17.9175 19.5H17.9036M17.9036 19.5H17.8896M17.9036 19.5H17.8896M17.8896 19.5H17.8757M17.8896 19.5H17.8757M17.8757 19.5H17.8618M17.8757 19.5H17.8618M17.8618 19.5H17.8478M17.8618 19.5H17.8478M17.8478 19.5H17.8339M17.8478 19.5H17.8339M17.8339 19.5H17.8199M17.8339 19.5H17.8199M17.8199 19.5H17.8059M17.8199 19.5H17.8059M17.8059 19.5H17.792M17.8059 19.5H17.792M17.792 19.5H17.778M17.792 19.5H17.778M17.778 19.5H17.764M17.778 19.5H17.764M17.764 19.5H17.75M17.764 19.5H17.75M17.75 19.5H17.7359M17.75 19.5H17.7359M17.7359 19.5H17.7219M17.7359 19.5H17.7219M17.7219 19.5H17.7079M17.7219 19.5H17.7079M17.7079 19.5H17.6938M17.7079 19.5H17.6938M17.6938 19.5H17.6798M17.6938 19.5H17.6798M17.6798 19.5H17.6657M17.6798 19.5H17.6657M17.6657 19.5H17.6516M17.6657 19.5H17.6516M17.6516 19.5H17.6376M17.6516 19.5H17.6376M17.6376 19.5H17.6235M17.6376 19.5H17.6235M17.6235 19.5H17.6094M17.6235 19.5H17.6094M17.6094 19.5H17.5953M17.6094 19.5H17.5953M17.5953 19.5H17.5811M17.5953 19.5H17.5811M17.5811 19.5H17.567M17.5811 19.5H17.567M17.567 19.5H17.5529M17.567 19.5H17.5529M17.5529 19.5H17.5387M17.5529 19.5H17.5387M17.5387 19.5H17.5246M17.5387 19.5H17.5246M17.5246 19.5H17.5104M17.5246 19.5H17.5104M17.5104 19.5H17.4963M17.5104 19.5H17.4963M17.4963 19.5H17.4821M17.4963 19.5H17.4821M17.4821 19.5H17.4679M17.4821 19.5H17.4679M17.4679 19.5H17.4537M17.4679 19.5H17.4537M17.4537 19.5H17.4395M17.4537 19.5H17.4395M17.4395 19.5H17.4253M17.4395 19.5H17.4253M17.4253 19.5H17.4111M17.4253 19.5H17.4111M17.4111 19.5H17.3968M17.4111 19.5H17.3968M17.3968 19.5H17.3826M17.3968 19.5H17.3826M17.3826 19.5H17.3683M17.3826 19.5H17.3683M17.3683 19.5H17.3541M17.3683 19.5H17.3541M17.3541 19.5H17.3398M17.3541 19.5H17.3398M17.3398 19.5H17.3255M17.3398 19.5H17.3255M17.3255 19.5H17.3112M17.3255 19.5H17.3112M17.3112 19.5H17.2969M17.3112 19.5H17.2969M17.2969 19.5H17.2826M17.2969 19.5H17.2826M17.2826 19.5H17.2683M17.2826 19.5H17.2683M17.2683 19.5H17.254M17.2683 19.5H17.254M17.254 19.5H17.2397M17.254 19.5H17.2397M17.2397 19.5H17.2253M17.2397 19.5H17.2253M17.2253 19.5H17.211M17.2253 19.5H17.211M17.211 19.5H17.1966M17.211 19.5H17.1966M17.1966 19.5H17.1823M17.1966 19.5H17.1823M17.1823 19.5H17.1679M17.1823 19.5H17.1679M17.1679 19.5H17.1535M17.1679 19.5H17.1535M17.1535 19.5H17.1391M17.1535 19.5H17.1391M17.1391 19.5H17.1247M17.1391 19.5H17.1247M17.1247 19.5H17.1103M17.1247 19.5H17.1103M17.1103 19.5H17.0959M17.1103 19.5H17.0959M17.0959 19.5H17.0814M17.0959 19.5H17.0814M17.0814 19.5H17.067M17.0814 19.5H17.067M17.067 19.5H17.0526M17.067 19.5H17.0526M17.0526 19.5H17.0381M17.0526 19.5H17.0381M17.0381 19.5H17.0236M17.0381 19.5H17.0236M17.0236 19.5H17.0092M17.0236 19.5H17.0092M17.0092 19.5H16.9947M17.0092 19.5H16.9947M16.9947 19.5H16.9802M16.9947 19.5H16.9802M16.9802 19.5H16.9657M16.9802 19.5H16.9657M16.9657 19.5H16.9512M16.9657 19.5H16.9512M16.9512 19.5H16.9366M16.9512 19.5H16.9366M16.9366 19.5H16.9221M16.9366 19.5H16.9221M16.9221 19.5H16.9076M16.9221 19.5H16.9076M16.9076 19.5H16.893M16.9076 19.5H16.893M16.893 19.5H16.8785M16.893 19.5H16.8785M16.8785 19.5H16.8639M16.8785 19.5H16.8639M16.8639 19.5H16.8493M16.8639 19.5H16.8493M16.8493 19.5H16.8347M16.8493 19.5H16.8347M16.8347 19.5H16.8201M16.8347 19.5H16.8201M16.8201 19.5H16.8055M16.8201 19.5H16.8055M16.8055 19.5H16.7909M16.8055 19.5H16.7909M16.7909 19.5H16.7763M16.7909 19.5H16.7763M16.7763 19.5H16.7617M16.7763 19.5H16.7617M16.7617 19.5H16.747M16.7617 19.5H16.747M16.747 19.5H16.7324M16.747 19.5H16.7324M16.7324 19.5H16.7177M16.7324 19.5H16.7177M16.7177 19.5H16.7031M16.7177 19.5H16.7031M16.7031 19.5H16.6884M16.7031 19.5H16.6884M16.6884 19.5H16.6737M16.6884 19.5H16.6737M16.6737 19.5H16.659M16.6737 19.5H16.659M16.659 19.5H16.6443M16.659 19.5H16.6443M16.6443 19.5H16.6296M16.6443 19.5H16.6296M16.6296 19.5H16.6149M16.6296 19.5H16.6149M16.6149 19.5H16.6001M16.6149 19.5H16.6001M16.6001 19.5H16.5854M16.6001 19.5H16.5854M16.5854 19.5H16.5707M16.5854 19.5H16.5707M16.5707 19.5H16.5559M16.5707 19.5H16.5559M16.5559 19.5H16.5411M16.5559 19.5H16.5411M16.5411 19.5H16.5264M16.5411 19.5H16.5264M16.5264 19.5H16.5116M16.5264 19.5H16.5116M16.5116 19.5H16.4968M16.5116 19.5H16.4968M16.4968 19.5H16.482M16.4968 19.5H16.482M16.482 19.5H16.4672M16.482 19.5H16.4672M16.4672 19.5H16.4523M16.4672 19.5H16.4523M16.4523 19.5H16.4375M16.4523 19.5H16.4375M16.4375 19.5H16.4227M16.4375 19.5H16.4227M16.4227 19.5H16.4078M16.4227 19.5H16.4078M16.4078 19.5H16.393M16.4078 19.5H16.393M16.393 19.5H16.3781M16.393 19.5H16.3781M16.3781 19.5H16.3632M16.3781 19.5H16.3632M16.3632 19.5H16.3483M16.3632 19.5H16.3483M16.3483 19.5H16.3334M16.3483 19.5H16.3334M16.3334 19.5H16.3185M16.3334 19.5H16.3185M16.3185 19.5H16.3036M16.3185 19.5H16.3036M16.3036 19.5H16.2887M16.3036 19.5H16.2887M16.2887 19.5H16.2738M16.2887 19.5H16.2738M16.2738 19.5H16.2588M16.2738 19.5H16.2588M16.2588 19.5H16.2439M16.2588 19.5H16.2439M16.2439 19.5H16.2289M16.2439 19.5H16.2289M16.2289 19.5H16.2139M16.2289 19.5H16.2139M16.2139 19.5H16.199M16.2139 19.5H16.199M16.199 19.5H16.184M16.199 19.5H16.184M16.184 19.5H16.169M16.184 19.5H16.169M16.169 19.5H16.154M16.169 19.5H16.154M16.154 19.5H16.1389M16.154 19.5H16.1389M16.1389 19.5H16.1239M16.1389 19.5H16.1239M16.1239 19.5H16.1089M16.1239 19.5H16.1089M16.1089 19.5H16.0938M16.1089 19.5H16.0938M16.0938 19.5H16.0788M16.0938 19.5H16.0788M16.0788 19.5H16.0637M16.0788 19.5H16.0637M16.0637 19.5H16.0487M16.0637 19.5H16.0487M16.0487 19.5H16.0336M16.0487 19.5H16.0336M16.0336 19.5H16.0185M16.0336 19.5H16.0185M16.0185 19.5H16.0034M16.0185 19.5H16.0034M16.0034 19.5H15.9883M16.0034 19.5H15.9883M15.9883 19.5H15.9732M15.9883 19.5H15.9732M15.9732 19.5H15.958M15.9732 19.5H15.958M15.958 19.5H15.9429M15.958 19.5H15.9429M15.9429 19.5H15.9278M15.9429 19.5H15.9278M15.9278 19.5H15.9126M15.9278 19.5H15.9126M15.9126 19.5H15.8974M15.9126 19.5H15.8974M15.8974 19.5H15.8823M15.8974 19.5H15.8823M15.8823 19.5H15.8671M15.8823 19.5H15.8671M15.8671 19.5H15.8519M15.8671 19.5H15.8519M15.8519 19.5H15.8367M15.8519 19.5H15.8367M15.8367 19.5H15.8215M15.8367 19.5H15.8215M15.8215 19.5H15.8063M15.8215 19.5H15.8063M15.8063 19.5H15.791M15.8063 19.5H15.791M15.791 19.5H15.7758M15.791 19.5H15.7758M15.7758 19.5H15.7605M15.7758 19.5H15.7605M15.7605 19.5H15.7453M15.7605 19.5H15.7453M15.7453 19.5H15.73M15.7453 19.5H15.73M15.73 19.5H15.7147M15.73 19.5H15.7147M15.7147 19.5H15.6995M15.7147 19.5H15.6995M15.6995 19.5H15.6842M15.6995 19.5H15.6842M15.6842 19.5H15.6689M15.6842 19.5H15.6689M15.6689 19.5H15.6535M15.6689 19.5H15.6535M15.6535 19.5H15.6382M15.6535 19.5H15.6382M15.6382 19.5H15.6229M15.6382 19.5H15.6229M15.6229 19.5H15.6075M15.6229 19.5H15.6075M15.6075 19.5H15.5922M15.6075 19.5H15.5922M15.5922 19.5H15.5768M15.5922 19.5H15.5768M15.5768 19.5H15.5615M15.5768 19.5H15.5615M15.5615 19.5H15.5461M15.5615 19.5H15.5461M15.5461 19.5H15.5307M15.5461 19.5H15.5307M15.5307 19.5H15.5153M15.5307 19.5H15.5153M15.5153 19.5H15.4999M15.5153 19.5H15.4999M15.4999 19.5H15.4845M15.4999 19.5H15.4845M15.4845 19.5H15.4691M15.4845 19.5H15.4691M15.4691 19.5H15.4536M15.4691 19.5H15.4536M15.4536 19.5H15.4382M15.4536 19.5H15.4382M15.4382 19.5H15.4227M15.4382 19.5H15.4227M15.4227 19.5H15.4073M15.4227 19.5H15.4073M15.4073 19.5H15.3918M15.4073 19.5H15.3918M15.3918 19.5H15.3763M15.3918 19.5H15.3763M15.3763 19.5H15.3608M15.3763 19.5H15.3608M15.3608 19.5H15.3453M15.3608 19.5H15.3453M15.3453 19.5H15.3298M15.3453 19.5H15.3298M15.3298 19.5H15.3143M15.3298 19.5H15.3143M15.3143 19.5H15.2987M15.3143 19.5H15.2987M15.2987 19.5H15.2832M15.2987 19.5H15.2832M15.2832 19.5H15.2677M15.2832 19.5H15.2677M15.2677 19.5H15.2521M15.2677 19.5H15.2521M15.2521 19.5H15.2365M15.2521 19.5H15.2365M15.2365 19.5H15.221M15.2365 19.5H15.221M15.221 19.5H15.2054M15.221 19.5H15.2054M15.2054 19.5H15.1898M15.2054 19.5H15.1898M15.1898 19.5H15.1742M15.1898 19.5H15.1742M15.1742 19.5H15.1586M15.1742 19.5H15.1586M15.1586 19.5H15.1429M15.1586 19.5H15.1429M15.1429 19.5H15.1273M15.1429 19.5H15.1273M15.1273 19.5H15.1117M15.1273 19.5H15.1117M15.1117 19.5H15.096M15.1117 19.5H15.096M15.096 19.5H15.0803M15.096 19.5H15.0803M15.0803 19.5H15.0647M15.0803 19.5H15.0647M15.0647 19.5H15.049M15.0647 19.5H15.049M15.049 19.5H15.0333M15.049 19.5H15.0333M15.0333 19.5H15.0176M15.0333 19.5H15.0176M15.0176 19.5H15.0019M15.0176 19.5H15.0019M15.0019 19.5H14.9862M15.0019 19.5H14.9862M14.9862 19.5H14.9704M14.9862 19.5H14.9704M14.9704 19.5H14.9547M14.9704 19.5H14.9547M14.9547 19.5H14.939M14.9547 19.5H14.939M14.939 19.5H14.9232M14.939 19.5H14.9232M14.9232 19.5H14.9074M14.9232 19.5H14.9074M14.9074 19.5H14.8917M14.9074 19.5H14.8917M14.8917 19.5H14.8759M14.8917 19.5H14.8759M14.8759 19.5H14.8601M14.8759 19.5H14.8601M14.8601 19.5H14.8443M14.8601 19.5H14.8443M14.8443 19.5H14.8285M14.8443 19.5H14.8285M14.8285 19.5H14.8126M14.8285 19.5H14.8126M14.8126 19.5H14.7968M14.8126 19.5H14.7968M14.7968 19.5H14.781M14.7968 19.5H14.781M14.781 19.5H14.7651M14.781 19.5H14.7651M14.7651 19.5H14.7492M14.7651 19.5H14.7492M14.7492 19.5H14.7334M14.7492 19.5H14.7334M14.7334 19.5H14.7175M14.7334 19.5H14.7175M14.7175 19.5H14.7016M14.7175 19.5H14.7016M14.7016 19.5H14.6857M14.7016 19.5H14.6857M14.6857 19.5H14.6698M14.6857 19.5H14.6698M14.6698 19.5H14.6539M14.6698 19.5H14.6539M14.6539 19.5H14.6379M14.6539 19.5H14.6379M14.6379 19.5H14.622M14.6379 19.5H14.622M14.622 19.5H14.6061M14.622 19.5H14.6061M14.6061 19.5H14.5901M14.6061 19.5H14.5901M14.5901 19.5H14.5741M14.5901 19.5H14.5741M14.5741 19.5H14.5582M14.5741 19.5H14.5582M14.5582 19.5H14.5422M14.5582 19.5H14.5422M14.5422 19.5H14.5262M14.5422 19.5H14.5262M14.5262 19.5H14.5102M14.5262 19.5H14.5102M14.5102 19.5H14.4942M14.5102 19.5H14.4942M14.4942 19.5H14.4781M14.4942 19.5H14.4781M14.4781 19.5H14.4621M14.4781 19.5H14.4621M14.4621 19.5H14.4461M14.4621 19.5H14.4461M14.4461 19.5H14.43M14.4461 19.5H14.43M14.43 19.5H14.4139M14.43 19.5H14.4139M14.4139 19.5H14.3979M14.4139 19.5H14.3979M14.3979 19.5H14.3818M14.3979 19.5H14.3818M14.3818 19.5H14.3657M14.3818 19.5H14.3657M14.3657 19.5H14.3496M14.3657 19.5H14.3496M14.3496 19.5H14.3335M14.3496 19.5H14.3335M14.3335 19.5H14.3174M14.3335 19.5H14.3174M14.3174 19.5H14.3012M14.3174 19.5H14.3012M14.3012 19.5H14.2851M14.3012 19.5H14.2851M14.2851 19.5H14.2689M14.2851 19.5H14.2689M14.2689 19.5H14.2528M14.2689 19.5H14.2528M14.2528 19.5H14.2366M14.2528 19.5H14.2366M14.2366 19.5H14.2204M14.2366 19.5H14.2204M14.2204 19.5H14.2042M14.2204 19.5H14.2042M14.2042 19.5H14.188M14.2042 19.5H14.188M14.188 19.5H14.1718M14.188 19.5H14.1718M14.1718 19.5H14.1556M14.1718 19.5H14.1556M14.1556 19.5H14.1394M14.1556 19.5H14.1394M14.1394 19.5H14.1231M14.1394 19.5H14.1231M14.1231 19.5H14.1069M14.1231 19.5H14.1069M14.1069 19.5H14.0906M14.1069 19.5H14.0906M14.0906 19.5H14.0744M14.0906 19.5H14.0744M14.0744 19.5H14.0581M14.0744 19.5H14.0581M14.0581 19.5H14.0418M14.0581 19.5H14.0418M14.0418 19.5H14.0255M14.0418 19.5H14.0255M14.0255 19.5H14.0092M14.0255 19.5H14.0092M14.0092 19.5H13.9929M14.0092 19.5H13.9929M13.9929 19.5H13.9766M13.9929 19.5H13.9766M13.9766 19.5H13.9602M13.9766 19.5H13.9602M13.9602 19.5H13.9439M13.9602 19.5H13.9439M13.9439 19.5H13.9276M13.9439 19.5H13.9276M13.9276 19.5H13.9112M13.9276 19.5H13.9112M13.9112 19.5H13.8948M13.9112 19.5H13.8948M13.8948 19.5H13.8784M13.8948 19.5H13.8784M13.8784 19.5H13.862M13.8784 19.5H13.862M13.862 19.5H13.8456M13.862 19.5H13.8456M13.8456 19.5H13.8292M13.8456 19.5H13.8292M13.8292 19.5H13.8128M13.8292 19.5H13.8128M13.8128 19.5H13.7964M13.8128 19.5H13.7964M13.7964 19.5H13.7799M13.7964 19.5H13.7799M13.7799 19.5H13.7635M13.7799 19.5H13.7635M13.7635 19.5H13.747M13.7635 19.5H13.747M13.747 19.5H13.7306M13.747 19.5H13.7306M13.7306 19.5H13.7141M13.7306 19.5H13.7141M13.7141 19.5H13.6976M13.7141 19.5H13.6976M13.6976 19.5H13.6811M13.6976 19.5H13.6811M13.6811 19.5H13.6646M13.6811 19.5H13.6646M13.6646 19.5H13.6481M13.6646 19.5H13.6481M13.6481 19.5H13.6315M13.6481 19.5H13.6315M13.6315 19.5H13.615M13.6315 19.5H13.615M13.615 19.5H13.5984M13.615 19.5H13.5984M13.5984 19.5H13.5819M13.5984 19.5H13.5819M13.5819 19.5H13.5653M13.5819 19.5H13.5653M13.5653 19.5H13.5487M13.5653 19.5H13.5487M13.5487 19.5H13.5321M13.5487 19.5H13.5321M13.5321 19.5H13.5156M13.5321 19.5H13.5156M13.5156 19.5H13.4989M13.5156 19.5H13.4989M13.4989 19.5H13.4823M13.4989 19.5H13.4823M13.4823 19.5H13.4657M13.4823 19.5H13.4657M13.4657 19.5H13.4491M13.4657 19.5H13.4491M13.4491 19.5H13.4324M13.4491 19.5H13.4324M13.4324 19.5H13.4158M13.4324 19.5H13.4158M13.4158 19.5H13.3991M13.4158 19.5H13.3991M13.3991 19.5H13.3824M13.3991 19.5H13.3824M13.3824 19.5H13.3657M13.3824 19.5H13.3657M13.3657 19.5H13.349M13.3657 19.5H13.349M13.349 19.5H13.3323M13.349 19.5H13.3323M13.3323 19.5H13.3156M13.3323 19.5H13.3156M13.3156 19.5H13.2989M13.3156 19.5H13.2989M13.2989 19.5H13.2822M13.2989 19.5H13.2822M13.2822 19.5H13.2654M13.2822 19.5H13.2654M13.2654 19.5H13.2487M13.2654 19.5H13.2487M13.2487 19.5H13.2319M13.2487 19.5H13.2319M13.2319 19.5H13.2151M13.2319 19.5H13.2151M13.2151 19.5H13.1983M13.2151 19.5H13.1983M13.1983 19.5H13.1815M13.1983 19.5H13.1815M13.1815 19.5H13.1647M13.1815 19.5H13.1647M13.1647 19.5H13.1479M13.1647 19.5H13.1479M13.1479 19.5H13.1311M13.1479 19.5H13.1311M13.1311 19.5H13.1143M13.1311 19.5H13.1143M13.1143 19.5H13.0974M13.1143 19.5H13.0974M13.0974 19.5H13.0806M13.0974 19.5H13.0806M13.0806 19.5H13.0637M13.0806 19.5H13.0637M13.0637 19.5H13.0468M13.0637 19.5H13.0468M13.0468 19.5H13.03M13.0468 19.5H13.03M13.03 19.5H13.0131M13.03 19.5H13.0131M13.0131 19.5H12.9962M13.0131 19.5H12.9962M12.9962 19.5H12.9792M12.9962 19.5H12.9792M12.9792 19.5H12.9623M12.9792 19.5H12.9623M12.9623 19.5H12.9454M12.9623 19.5H12.9454M12.9454 19.5H12.9284M12.9454 19.5H12.9284M12.9284 19.5H12.9115M12.9284 19.5H12.9115M12.9115 19.5H12.8945M12.9115 19.5H12.8945M12.8945 19.5H12.8776M12.8945 19.5H12.8776M12.8776 19.5H12.8606M12.8776 19.5H12.8606M12.8606 19.5H12.8436M12.8606 19.5H12.8436M12.8436 19.5H12.8266M12.8436 19.5H12.8266M12.8266 19.5H12.8096M12.8266 19.5H12.8096M12.8096 19.5H12.7925M12.8096 19.5H12.7925M12.7925 19.5H12.7755M12.7925 19.5H12.7755M12.7755 19.5H12.7585M12.7755 19.5H12.7585M12.7585 19.5H12.7414M12.7585 19.5H12.7414M12.7414 19.5H12.7244M12.7414 19.5H12.7244M12.7244 19.5H12.7073M12.7244 19.5H12.7073M12.7073 19.5H12.6902M12.7073 19.5H12.6902M12.6902 19.5H12.6731M12.6902 19.5H12.6731M12.6731 19.5H12.656M12.6731 19.5H12.656M12.656 19.5H12.6389M12.656 19.5H12.6389M12.6389 19.5H12.6218M12.6389 19.5H12.6218M12.6218 19.5H12.6046M12.6218 19.5H12.6046M12.6046 19.5H12.5875M12.6046 19.5H12.5875M12.5875 19.5H12.5704M12.5875 19.5H12.5704M12.5704 19.5H12.5532M12.5704 19.5H12.5532M12.5532 19.5H12.536M12.5532 19.5H12.536M12.536 19.5H12.5188M12.536 19.5H12.5188M12.5188 19.5H12.5016M12.5188 19.5H12.5016M12.5016 19.5H12.4844M12.5016 19.5H12.4844M12.4844 19.5H12.4672M12.4844 19.5H12.4672M12.4672 19.5H12.45M12.4672 19.5H12.45M12.45 19.5H12.4328M12.45 19.5H12.4328M12.4328 19.5H12.4155M12.4328 19.5H12.4155M12.4155 19.5H12.3983M12.4155 19.5H12.3983M12.3983 19.5H12.381M12.3983 19.5H12.381M12.381 19.5H12.3638M12.381 19.5H12.3638M12.3638 19.5H12.3465M12.3638 19.5H12.3465M12.3465 19.5H12.3292M12.3465 19.5H12.3292M12.3292 19.5H12.3119M12.3292 19.5H12.3119M12.3119 19.5H12.2946M12.3119 19.5H12.2946M12.2946 19.5H12.2772M12.2946 19.5H12.2772M12.2772 19.5H12.2599M12.2772 19.5H12.2599M12.2599 19.5H12.2426M12.2599 19.5H12.2426M12.2426 19.5H12.2252M12.2426 19.5H12.2252M12.2252 19.5H12.2079M12.2252 19.5H12.2079M12.2079 19.5H12.1905M12.2079 19.5H12.1905M12.1905 19.5H12.1731M12.1905 19.5H12.1731M12.1731 19.5H12.1557M12.1731 19.5H12.1557M12.1557 19.5H12.1383M12.1557 19.5H12.1383M12.1383 19.5H12.1209M12.1383 19.5H12.1209M12.1209 19.5H12.1035M12.1209 19.5H12.1035M12.1035 19.5H12.086M12.1035 19.5H12.086M12.086 19.5H12.0686M12.086 19.5H12.0686M12.0686 19.5H12.0511M12.0686 19.5H12.0511M12.0511 19.5H12.0337M12.0511 19.5H12.0337M12.0337 19.5H12.0162M12.0337 19.5H12.0162M12.0162 19.5H11.9987M12.0162 19.5H11.9987M11.9987 19.5H11.9812M11.9987 19.5H11.9812M11.9812 19.5H11.9637M11.9812 19.5H11.9637M11.9637 19.5H11.9462M11.9637 19.5H11.9462M11.9462 19.5H11.9287M11.9462 19.5H11.9287M11.9287 19.5H11.9112M11.9287 19.5H11.9112M11.9112 19.5H11.8936M11.9112 19.5H11.8936M11.8936 19.5H11.8761M11.8936 19.5H11.8761M11.8761 19.5H11.8585M11.8761 19.5H11.8585M11.8585 19.5H11.8409M11.8585 19.5H11.8409M11.8409 19.5H11.8233M11.8409 19.5H11.8233M11.8233 19.5H11.8057M11.8233 19.5H11.8057M11.8057 19.5H11.7881M11.8057 19.5H11.7881M11.7881 19.5H11.7705M11.7881 19.5H11.7705M11.7705 19.5H11.7529M11.7705 19.5H11.7529M11.7529 19.5H11.7353M11.7529 19.5H11.7353M11.7353 19.5H11.7178M11.7353 19.5H11.7178M11.7178 19.5H11.7002M11.7178 19.5H11.7002M11.7002 19.5H11.6827M11.7002 19.5H11.6827M11.6827 19.5H11.6652M11.6827 19.5H11.6652M11.6652 19.5H11.6477M11.6652 19.5H11.6477M11.6477 19.5H11.6302M11.6477 19.5H11.6302M11.6302 19.5H11.6128M11.6302 19.5H11.6128M11.6128 19.5H11.5953M11.6128 19.5H11.5953M11.5953 19.5H11.5779M11.5953 19.5H11.5779M11.5779 19.5H11.5605M11.5779 19.5H11.5605M11.5605 19.5H11.5432M11.5605 19.5H11.5432M11.5432 19.5H11.5258M11.5432 19.5H11.5258M11.5258 19.5H11.5085M11.5258 19.5H11.5085M11.5085 19.5H11.4912M11.5085 19.5H11.4912M11.4912 19.5H11.4739M11.4912 19.5H11.4739M11.4739 19.5H11.4566M11.4739 19.5H11.4566M11.4566 19.5H11.4394M11.4566 19.5H11.4394M11.4394 19.5H11.4221M11.4394 19.5H11.4221M11.4221 19.5H11.4049M11.4221 19.5H11.4049M11.4049 19.5H11.3877M11.4049 19.5H11.3877M11.3877 19.5H11.3705M11.3877 19.5H11.3705M11.3705 19.5H11.3534M11.3705 19.5H11.3534M11.3534 19.5H11.3362M11.3534 19.5H11.3362M11.3362 19.5H11.3191M11.3362 19.5H11.3191M11.3191 19.5H11.302M11.3191 19.5H11.302M11.302 19.5H11.2849M11.302 19.5H11.2849M11.2849 19.5H11.2679M11.2849 19.5H11.2679M11.2679 19.5H11.2508M11.2679 19.5H11.2508M11.2508 19.5H11.2338M11.2508 19.5H11.2338M11.2338 19.5H11.2168M11.2338 19.5H11.2168M11.2168 19.5H11.1998M11.2168 19.5H11.1998M11.1998 19.5H11.1828M11.1998 19.5H11.1828M11.1828 19.5H11.1659M11.1828 19.5H11.1659M11.1659 19.5H11.149M11.1659 19.5H11.149M11.149 19.5H11.1321M11.149 19.5H11.1321M11.1321 19.5H11.1152M11.1321 19.5H11.1152M11.1152 19.5H11.0983M11.1152 19.5H11.0983M11.0983 19.5H11.0814M11.0983 19.5H11.0814M11.0814 19.5H11.0646M11.0814 19.5H11.0646M11.0646 19.5H11.0478M11.0646 19.5H11.0478M11.0478 19.5H11.031M11.0478 19.5H11.031M11.031 19.5H11.0142M11.031 19.5H11.0142M11.0142 19.5H10.9974M11.0142 19.5H10.9974M10.9974 19.5H10.9807M10.9974 19.5H10.9807M10.9807 19.5H10.9639M10.9807 19.5H10.9639M10.9639 19.5H10.9472M10.9639 19.5H10.9472M10.9472 19.5H10.9305M10.9472 19.5H10.9305M10.9305 19.5H10.9139M10.9305 19.5H10.9139M10.9139 19.5H10.8972M10.9139 19.5H10.8972M10.8972 19.5H10.8806M10.8972 19.5H10.8806M10.8806 19.5H10.8639M10.8806 19.5H10.8639M10.8639 19.5H10.8473M10.8639 19.5H10.8473M10.8473 19.5H10.8308M10.8473 19.5H10.8308M10.8308 19.5H10.8142M10.8308 19.5H10.8142M10.8142 19.5H10.7976M10.8142 19.5H10.7976M10.7976 19.5H10.7811M10.7976 19.5H10.7811M10.7811 19.5H10.7646M10.7811 19.5H10.7646M10.7646 19.5H10.7481M10.7646 19.5H10.7481M10.7481 19.5H10.7316M10.7481 19.5H10.7316M10.7316 19.5H10.7151M10.7316 19.5H10.7151M10.7151 19.5H10.6987M10.7151 19.5H10.6987M10.6987 19.5H10.6823M10.6987 19.5H10.6823M10.6823 19.5H10.6659M10.6823 19.5H10.6659M10.6659 19.5H10.6495M10.6659 19.5H10.6495M10.6495 19.5H10.6331M10.6495 19.5H10.6331M10.6331 19.5H10.6167M10.6331 19.5H10.6167M10.6167 19.5H10.6004M10.6167 19.5H10.6004M10.6004 19.5H10.5841M10.6004 19.5H10.5841M10.5841 19.5H10.5677M10.5841 19.5H10.5677M10.5677 19.5H10.5515M10.5677 19.5H10.5515M10.5515 19.5H10.5352M10.5515 19.5H10.5352M10.5352 19.5H10.5189M10.5352 19.5H10.5189M10.5189 19.5H10.5027M10.5189 19.5H10.5027M10.5027 19.5H10.4865M10.5027 19.5H10.4865M10.4865 19.5H10.4702M10.4865 19.5H10.4702M10.4702 19.5H10.4541M10.4702 19.5H10.4541M10.4541 19.5H10.4379M10.4541 19.5H10.4379M10.4379 19.5H10.4217M10.4379 19.5H10.4217M10.4217 19.5H10.4056M10.4217 19.5H10.4056M10.4056 19.5H10.3895M10.4056 19.5H10.3895M10.3895 19.5H10.3733M10.3895 19.5H10.3733M10.3733 19.5H10.3573M10.3733 19.5H10.3573M10.3573 19.5H10.3412M10.3573 19.5H10.3412M10.3412 19.5H10.3251M10.3412 19.5H10.3251M10.3251 19.5H10.3091M10.3251 19.5H10.3091M10.3091 19.5H10.293M10.3091 19.5H10.293M10.293 19.5H10.277M10.293 19.5H10.277M10.277 19.5H10.261M10.277 19.5H10.261M10.261 19.5H10.2451M10.261 19.5H10.2451M10.2451 19.5H10.2291M10.2451 19.5H10.2291M10.2291 19.5H10.2131M10.2291 19.5H10.2131M10.2131 19.5H10.1972M10.2131 19.5H10.1972M10.1972 19.5H10.1813M10.1972 19.5H10.1813M10.1813 19.5H10.1654M10.1813 19.5H10.1654M10.1654 19.5H10.1495M10.1654 19.5H10.1495M10.1495 19.5H10.1336M10.1495 19.5H10.1336M10.1336 19.5H10.1178M10.1336 19.5H10.1178M10.1178 19.5H10.102M10.1178 19.5H10.102M10.102 19.5H10.0861M10.102 19.5H10.0861M10.0861 19.5H10.0703M10.0861 19.5H10.0703M10.0703 19.5H10.0545M10.0703 19.5H10.0545M10.0545 19.5H10.0388M10.0545 19.5H10.0388M10.0388 19.5H10.023M10.0388 19.5H10.023M10.023 19.5H10.0072M10.023 19.5H10.0072M10.0072 19.5H9.99152M10.0072 19.5H9.99152M9.99152 19.5H9.97581M9.99152 19.5H9.97581M9.97581 19.5H9.96011M9.97581 19.5H9.96011M9.96011 19.5H9.94442M9.96011 19.5H9.94442M9.94442 19.5H9.92875M9.94442 19.5H9.92875M9.92875 19.5H9.9131M9.92875 19.5H9.9131M9.9131 19.5H9.89746M9.9131 19.5H9.89746M9.89746 19.5H9.88183M9.89746 19.5H9.88183M9.88183 19.5H9.86623M9.88183 19.5H9.86623M9.86623 19.5H9.85063M9.86623 19.5H9.85063M9.85063 19.5H9.83505M9.85063 19.5H9.83505M9.83505 19.5H9.81949M9.83505 19.5H9.81949M9.81949 19.5H9.80394M9.81949 19.5H9.80394M9.80394 19.5H9.7884M9.80394 19.5H9.7884M9.7884 19.5H9.77288M9.7884 19.5H9.77288M9.77288 19.5H9.75737M9.77288 19.5H9.75737M9.75737 19.5H9.74188M9.75737 19.5H9.74188M9.74188 19.5H9.72641M9.74188 19.5H9.72641M9.72641 19.5H9.71094M9.72641 19.5H9.71094M9.71094 19.5H9.69549M9.71094 19.5H9.69549M9.69549 19.5H9.68006M9.69549 19.5H9.68006M9.68006 19.5H9.66464M9.68006 19.5H9.66464M9.66464 19.5H9.64923M9.66464 19.5H9.64923M9.64923 19.5H9.63384M9.64923 19.5H9.63384M9.63384 19.5H9.61847M9.63384 19.5H9.61847M9.61847 19.5H9.6031M9.61847 19.5H9.6031M9.6031 19.5H9.58775M9.6031 19.5H9.58775M9.58775 19.5H9.57242M9.58775 19.5H9.57242M9.57242 19.5H9.5571M9.57242 19.5H9.5571M9.5571 19.5H9.54179M9.5571 19.5H9.54179M9.54179 19.5H9.5265M9.54179 19.5H9.5265M9.5265 19.5H9.51122M9.5265 19.5H9.51122M9.51122 19.5H9.49595M9.51122 19.5H9.49595M9.49595 19.5H9.4807M9.49595 19.5H9.4807M9.4807 19.5H9.46546M9.4807 19.5H9.46546M9.46546 19.5H9.45024M9.46546 19.5H9.45024M9.45024 19.5H9.43503M9.45024 19.5H9.43503M9.43503 19.5H9.41983M9.43503 19.5H9.41983M9.41983 19.5H9.40464M9.41983 19.5H9.40464M9.40464 19.5H9.38947M9.40464 19.5H9.38947M9.38947 19.5H9.37432M9.38947 19.5H9.37432M9.37432 19.5H9.35917M9.37432 19.5H9.35917M9.35917 19.5H9.34404M9.35917 19.5H9.34404M9.34404 19.5H9.32892M9.34404 19.5H9.32892M9.32892 19.5H9.31382M9.32892 19.5H9.31382M9.31382 19.5H9.29873M9.31382 19.5H9.29873M9.29873 19.5H9.28365M9.29873 19.5H9.28365M9.28365 19.5H9.26859M9.28365 19.5H9.26859M9.26859 19.5H9.25354M9.26859 19.5H9.25354M9.25354 19.5H9.2385M9.25354 19.5H9.2385M9.2385 19.5H9.22347M9.2385 19.5H9.22347M9.22347 19.5H9.20846M9.22347 19.5H9.20846M9.20846 19.5H9.19346M9.20846 19.5H9.19346M9.19346 19.5H9.17847M9.19346 19.5H9.17847M9.17847 19.5H9.1635M9.17847 19.5H9.1635M9.1635 19.5H9.14853M9.1635 19.5H9.14853M9.14853 19.5H9.13358M9.14853 19.5H9.13358M9.13358 19.5H9.11865M9.13358 19.5H9.11865M9.11865 19.5H9.10372M9.11865 19.5H9.10372M9.10372 19.5H9.08881M9.10372 19.5H9.08881M9.08881 19.5H9.07391M9.08881 19.5H9.07391M9.07391 19.5H9.05903M9.07391 19.5H9.05903M9.05903 19.5H9.04415M9.05903 19.5H9.04415M9.04415 19.5H9.02929M9.04415 19.5H9.02929M9.02929 19.5H9.01444M9.02929 19.5H9.01444M9.01444 19.5H8.9996M9.01444 19.5H8.9996M8.9996 19.5H8.98478M8.9996 19.5H8.98478M8.98478 19.5H8.96997M8.98478 19.5H8.96997M8.96997 19.5H8.95516M8.96997 19.5H8.95516M8.95516 19.5H8.94038M8.95516 19.5H8.94038M8.94038 19.5H8.9256M8.94038 19.5H8.9256M8.9256 19.5H8.91083M8.9256 19.5H8.91083M8.91083 19.5H8.89608M8.91083 19.5H8.89608M8.89608 19.5H8.88134M8.89608 19.5H8.88134M8.88134 19.5H8.86661M8.88134 19.5H8.86661M8.86661 19.5H8.85189M8.86661 19.5H8.85189M8.85189 19.5H8.83719M8.85189 19.5H8.83719M8.83719 19.5H8.82249M8.83719 19.5H8.82249M8.82249 19.5H8.80781M8.82249 19.5H8.80781M8.80781 19.5H8.79314M8.80781 19.5H8.79314M8.79314 19.5H8.77848M8.79314 19.5H8.77848M8.77848 19.5H8.76383M8.77848 19.5H8.76383M8.76383 19.5H8.74919M8.76383 19.5H8.74919M8.74919 19.5H8.73457M8.74919 19.5H8.73457M8.73457 19.5H8.71995M8.73457 19.5H8.71995M8.71995 19.5H8.70535M8.71995 19.5H8.70535M8.70535 19.5H8.69076M8.70535 19.5H8.69076M8.69076 19.5H8.67618M8.69076 19.5H8.67618M8.67618 19.5H8.66161M8.67618 19.5H8.66161M8.66161 19.5H8.64705M8.66161 19.5H8.64705M8.64705 19.5H8.63251M8.64705 19.5H8.63251M8.63251 19.5H8.61797M8.63251 19.5H8.61797M8.61797 19.5H8.60345M8.61797 19.5H8.60345M8.60345 19.5H8.58893M8.60345 19.5H8.58893M8.58893 19.5H8.57443M8.58893 19.5H8.57443M8.57443 19.5H8.55994M8.57443 19.5H8.55994M8.55994 19.5H8.54545M8.55994 19.5H8.54545M8.54545 19.5H8.53098M8.54545 19.5H8.53098M8.53098 19.5H8.51652M8.53098 19.5H8.51652M8.51652 19.5H8.50207M8.51652 19.5H8.50207M8.50207 19.5H8.48763M8.50207 19.5H8.48763M8.48763 19.5H8.47321M8.48763 19.5H8.47321M8.47321 19.5H8.45879M8.47321 19.5H8.45879M8.45879 19.5H8.44438M8.45879 19.5H8.44438M8.44438 19.5H8.42998M8.44438 19.5H8.42998M8.42998 19.5H8.4156M8.42998 19.5H8.4156M8.4156 19.5H8.40122M8.4156 19.5H8.40122M8.40122 19.5H8.38685M8.40122 19.5H8.38685M8.38685 19.5H8.3725M8.38685 19.5H8.3725M8.3725 19.5H8.35815M8.3725 19.5H8.35815M8.35815 19.5H8.34382M8.35815 19.5H8.34382M8.34382 19.5H8.32949M8.34382 19.5H8.32949M8.32949 19.5H8.31518M8.32949 19.5H8.31518M8.31518 19.5H8.30087M8.31518 19.5H8.30087M8.30087 19.5H8.28658M8.30087 19.5H8.28658M8.28658 19.5H8.27229M8.28658 19.5H8.27229M8.27229 19.5H8.25801M8.27229 19.5H8.25801M8.25801 19.5H8.24375M8.25801 19.5H8.24375M8.24375 19.5H8.22949M8.24375 19.5H8.22949M8.22949 19.5H8.21524M8.22949 19.5H8.21524M8.21524 19.5H8.20101M8.21524 19.5H8.20101M8.20101 19.5H8.18678M8.20101 19.5H8.18678M8.18678 19.5H8.17256M8.18678 19.5H8.17256M8.17256 19.5H8.15835M8.17256 19.5H8.15835M8.15835 19.5H8.14416M8.15835 19.5H8.14416M8.14416 19.5H8.12997M8.14416 19.5H8.12997M8.12997 19.5H8.11579M8.12997 19.5H8.11579M8.11579 19.5H8.10161M8.11579 19.5H8.10161M8.10161 19.5H8.08745M8.10161 19.5H8.08745M8.08745 19.5H8.0733M8.08745 19.5H8.0733M8.0733 19.5H8.05916M8.0733 19.5H8.05916M8.05916 19.5H8.04502M8.05916 19.5H8.04502M8.04502 19.5H8.0309M8.04502 19.5H8.0309M8.0309 19.5H8.01678M8.0309 19.5H8.01678M8.01678 19.5H8.00268M8.01678 19.5H8.00268M8.00268 19.5H7.98858M8.00268 19.5H7.98858M7.98858 19.5H7.97449M7.98858 19.5H7.97449M7.97449 19.5H7.96041M7.97449 19.5H7.96041M7.96041 19.5H7.94634M7.96041 19.5H7.94634M7.94634 19.5H7.93228M7.94634 19.5H7.93228M7.93228 19.5H7.91822M7.93228 19.5H7.91822M7.91822 19.5H7.90418M7.91822 19.5H7.90418M7.90418 19.5H7.89014M7.90418 19.5H7.89014M7.89014 19.5H7.87611M7.89014 19.5H7.87611M7.87611 19.5H7.86209M7.87611 19.5H7.86209M7.86209 19.5H7.84808M7.86209 19.5H7.84808M7.84808 19.5H7.83408M7.84808 19.5H7.83408M7.83408 19.5H7.82009M7.83408 19.5H7.82009M7.82009 19.5H7.8061M7.82009 19.5H7.8061M7.8061 19.5H7.79212M7.8061 19.5H7.79212M7.79212 19.5H7.77815M7.79212 19.5H7.77815M7.77815 19.5H7.76419M7.77815 19.5H7.76419M7.76419 19.5H7.75024M7.76419 19.5H7.75024M7.75024 19.5H7.7363M7.75024 19.5H7.7363M7.7363 19.5H7.72236M7.7363 19.5H7.72236M7.72236 19.5H7.70843M7.72236 19.5H7.70843M7.70843 19.5H7.69451M7.70843 19.5H7.69451M7.69451 19.5H7.6806M7.69451 19.5H7.6806M7.6806 19.5H7.66669M7.6806 19.5H7.66669M7.66669 19.5H7.65279M7.66669 19.5H7.65279M7.65279 19.5H7.63891M7.65279 19.5H7.63891M7.63891 19.5H7.62502M7.63891 19.5H7.62502M7.62502 19.5H7.61115M7.62502 19.5H7.61115M7.61115 19.5H7.59728M7.61115 19.5H7.59728M7.59728 19.5H7.58343M7.59728 19.5H7.58343M7.58343 19.5H7.56957M7.58343 19.5H7.56957M7.56957 19.5H7.55573M7.56957 19.5H7.55573M7.55573 19.5H7.54189M7.55573 19.5H7.54189M7.54189 19.5H7.52807M7.54189 19.5H7.52807M7.52807 19.5H7.51424M7.52807 19.5H7.51424M7.51424 19.5H7.50043M7.51424 19.5H7.50043M7.50043 19.5H7.48662M7.50043 19.5H7.48662M7.48662 19.5H7.47282M7.48662 19.5H7.47282M7.47282 19.5H7.45903M7.47282 19.5H7.45903M7.45903 19.5H7.44525M7.45903 19.5H7.44525M7.44525 19.5H7.43147M7.44525 19.5H7.43147M7.43147 19.5H7.4177M7.43147 19.5H7.4177M7.4177 19.5H7.40393M7.4177 19.5H7.40393M7.40393 19.5H7.39017M7.40393 19.5H7.39017M7.39017 19.5H7.37642M7.39017 19.5H7.37642M7.37642 19.5H7.36268M7.37642 19.5H7.36268M7.36268 19.5H7.34894M7.36268 19.5H7.34894M7.34894 19.5H7.33521M7.34894 19.5H7.33521M7.33521 19.5H7.32149M7.33521 19.5H7.32149M7.32149 19.5H7.30777M7.32149 19.5H7.30777M7.30777 19.5H7.29406M7.30777 19.5H7.29406M7.29406 19.5H7.28036M7.29406 19.5H7.28036M7.28036 19.5H7.26666M7.28036 19.5H7.26666M7.26666 19.5H7.25297M7.26666 19.5H7.25297M7.25297 19.5H7.23929M7.25297 19.5H7.23929M7.23929 19.5H7.22561M7.23929 19.5H7.22561M7.22561 19.5H7.21194M7.22561 19.5H7.21194M7.21194 19.5H7.19827M7.21194 19.5H7.19827M7.19827 19.5H7.18462M7.19827 19.5H7.18462M7.18462 19.5H7.17096M7.18462 19.5H7.17096M7.17096 19.5H7.15732M7.17096 19.5H7.15732M7.15732 19.5H7.14368M7.15732 19.5H7.14368M7.14368 19.5H7.13004M7.14368 19.5H7.13004M7.13004 19.5H7.11641M7.13004 19.5H7.11641M7.11641 19.5H7.10279M7.11641 19.5H7.10279M7.10279 19.5H7.08917M7.10279 19.5H7.08917M7.08917 19.5H7.07556M7.08917 19.5H7.07556M7.07556 19.5H7.06196M7.07556 19.5H7.06196M7.06196 19.5H7.04836M7.06196 19.5H7.04836M7.04836 19.5H7.03477M7.04836 19.5H7.03477M7.03477 19.5H7.02118M7.03477 19.5H7.02118M7.02118 19.5H7.0076M7.02118 19.5H7.0076M7.0076 19.5H6.99402M7.0076 19.5H6.99402M6.99402 19.5H6.98045M6.99402 19.5H6.98045M6.98045 19.5H6.96688M6.98045 19.5H6.96688M6.96688 19.5H6.95332M6.96688 19.5H6.95332M6.95332 19.5H6.93977M6.95332 19.5H6.93977M6.93977 19.5H6.92622M6.93977 19.5H6.92622M6.92622 19.5H6.91267M6.92622 19.5H6.91267M6.91267 19.5H6.89914M6.91267 19.5H6.89914M6.89914 19.5H6.8856M6.89914 19.5H6.8856M6.8856 19.5H6.87207M6.8856 19.5H6.87207M6.87207 19.5H6.85855M6.87207 19.5H6.85855M6.85855 19.5H6.84503M6.85855 19.5H6.84503M6.84503 19.5H6.83152M6.84503 19.5H6.83152M6.83152 19.5H6.81801M6.83152 19.5H6.81801M6.81801 19.5H6.80451M6.81801 19.5H6.80451M6.80451 19.5H6.79101M6.80451 19.5H6.79101M6.79101 19.5H6.77751M6.79101 19.5H6.77751M6.77751 19.5H6.76402M6.77751 19.5H6.76402M6.76402 19.5H6.75054M6.76402 19.5H6.75054M6.75054 19.5H6.73706M6.75054 19.5H6.73706M6.73706 19.5H6.72359M6.73706 19.5H6.72359M6.72359 19.5H6.71012M6.72359 19.5H6.71012M6.71012 19.5H6.69665M6.71012 19.5H6.69665M6.69665 19.5H6.68319M6.69665 19.5H6.68319M6.68319 19.5H6.66973M6.68319 19.5H6.66973M6.66973 19.5H6.65628M6.66973 19.5H6.65628M6.65628 19.5H6.64283M6.65628 19.5H6.64283M6.64283 19.5H6.62939M6.64283 19.5H6.62939M6.62939 19.5H6.61595M6.62939 19.5H6.61595M6.61595 19.5H6.60251M6.61595 19.5H6.60251M6.60251 19.5H6.58908M6.60251 19.5H6.58908M6.58908 19.5H6.57565M6.58908 19.5H6.57565M6.57565 19.5H6.56223M6.57565 19.5H6.56223M6.56223 19.5H6.54881M6.56223 19.5H6.54881M6.54881 19.5H6.5354M6.54881 19.5H6.5354M6.5354 19.5H6.52199M6.5354 19.5H6.52199M6.52199 19.5H6.50858M6.52199 19.5H6.50858M6.50858 19.5H6.49518M6.50858 19.5H6.49518M6.49518 19.5H6.48178M6.49518 19.5H6.48178M6.48178 19.5H6.46838M6.48178 19.5H6.46838M6.46838 19.5H6.45499M6.46838 19.5H6.45499M6.45499 19.5H6.4416M6.45499 19.5H6.4416M6.4416 19.5H6.42822M6.4416 19.5H6.42822M6.42822 19.5H6.41484M6.42822 19.5H6.41484M6.41484 19.5H6.40146M6.41484 19.5H6.40146M6.40146 19.5H6.38808M6.40146 19.5H6.38808M6.38808 19.5H6.37471M6.38808 19.5H6.37471M6.37471 19.5H6.36135M6.37471 19.5H6.36135M6.36135 19.5H6.34798M6.36135 19.5H6.34798M6.34798 19.5H6.33462M6.34798 19.5H6.33462M6.33462 19.5H6.32126M6.33462 19.5H6.32126M6.32126 19.5H6.30791M6.32126 19.5H6.30791M6.30791 19.5H6.29456M6.30791 19.5H6.29456M6.29456 19.5H6.28121M6.29456 19.5H6.28121M6.28121 19.5H6.26787M6.28121 19.5H6.26787M6.26787 19.5H6.25452M6.26787 19.5H6.25452M6.25452 19.5H6.24118M6.25452 19.5H6.24118M6.24118 19.5H6.22785M6.24118 19.5H6.22785M6.22785 19.5H6.21451M6.22785 19.5H6.21451M6.21451 19.5H6.20118M6.21451 19.5H6.20118M6.20118 19.5H6.18786M6.20118 19.5H6.18786M6.18786 19.5H6.17453M6.18786 19.5H6.17453M6.17453 19.5H6.16121M6.17453 19.5H6.16121M6.16121 19.5H6.14789M6.16121 19.5H6.14789M6.14789 19.5H6.13457M6.14789 19.5H6.13457M6.13457 19.5H6.12126M6.13457 19.5H6.12126M6.12126 19.5H6.10795M6.12126 19.5H6.10795M6.10795 19.5H6.09464M6.10795 19.5H6.09464M6.09464 19.5H6.08133M6.09464 19.5H6.08133M6.08133 19.5H6.06802M6.08133 19.5H6.06802M6.06802 19.5H6.05472M6.06802 19.5H6.05472M6.05472 19.5H6.04142M6.05472 19.5H6.04142M6.04142 19.5H6.02812M6.04142 19.5H6.02812M6.02812 19.5H6.01483M6.02812 19.5H6.01483M6.01483 19.5H6.00153M6.01483 19.5H6.00153M6.00153 19.5H5.98824M6.00153 19.5H5.98824M5.98824 19.5H5.97495M5.98824 19.5H5.97495M5.97495 19.5H5.96166M5.97495 19.5H5.96166M5.96166 19.5H5.94838M5.96166 19.5H5.94838M5.94838 19.5H5.93509M5.94838 19.5H5.93509M5.93509 19.5H5.92181M5.93509 19.5H5.92181M5.92181 19.5H5.90853M5.92181 19.5H5.90853M5.90853 19.5H5.89525M5.90853 19.5H5.89525M5.89525 19.5H5.88197M5.89525 19.5H5.88197M5.88197 19.5H5.8687M5.88197 19.5H5.8687M5.8687 19.5H5.85542M5.8687 19.5H5.85542M5.85542 19.5H5.84215M5.85542 19.5H5.84215M5.84215 19.5H5.82888M5.84215 19.5H5.82888M5.82888 19.5H5.81561M5.82888 19.5H5.81561M5.81561 19.5H5.80234M5.81561 19.5H5.80234M5.80234 19.5H5.78908M5.80234 19.5H5.78908M5.78908 19.5H5.77581M5.78908 19.5H5.77581M5.77581 19.5H5.76255M5.77581 19.5H5.76255M5.76255 19.5H5.74928M5.76255 19.5H5.74928M5.74928 19.5H5.73602M5.74928 19.5H5.73602M5.73602 19.5H5.72276M5.73602 19.5H5.72276M5.72276 19.5H5.7095M5.72276 19.5H5.7095M5.7095 19.5H5.69625M5.7095 19.5H5.69625M5.69625 19.5H5.68299M5.69625 19.5H5.68299M5.68299 19.5H5.66973M5.68299 19.5H5.66973M5.66973 19.5H5.65648M5.66973 19.5H5.65648M5.65648 19.5H5.64322M5.65648 19.5H5.64322M5.64322 19.5H5.62997M5.64322 19.5H5.62997M5.62997 19.5H5.61671M5.62997 19.5H5.61671M5.61671 19.5H5.60346M5.61671 19.5H5.60346M5.60346 19.5H5.59021M5.60346 19.5H5.59021M5.59021 19.5H5.57696M5.59021 19.5H5.57696M5.57696 19.5H5.56371M5.57696 19.5H5.56371M5.56371 19.5H5.55046M5.56371 19.5H5.55046M5.55046 19.5H5.53721M5.55046 19.5H5.53721M5.53721 19.5H5.52396M5.53721 19.5H5.52396M5.52396 19.5H5.51071M5.52396 19.5H5.51071M5.51071 19.5H5.49746M5.51071 19.5H5.49746M5.49746 19.5H5.48421M5.49746 19.5H5.48421M5.48421 19.5H5.47096M5.48421 19.5H5.47096M5.47096 19.5H5.45772M5.47096 19.5H5.45772M5.45772 19.5H5.44447M5.45772 19.5H5.44447M5.44447 19.5H5.43122M5.44447 19.5H5.43122M5.43122 19.5H5.41797M5.43122 19.5H5.41797M5.41797 19.5H5.40473M5.41797 19.5H5.40473M5.40473 19.5H5.39148M5.40473 19.5H5.39148M5.39148 19.5H5.37823M5.39148 19.5H5.37823M5.37823 19.5H5.36498M5.37823 19.5H5.36498M5.36498 19.5H5.35174M5.36498 19.5H5.35174M5.35174 19.5H5.33849M5.35174 19.5H5.33849M5.33849 19.5H5.32524M5.33849 19.5H5.32524M5.32524 19.5H5.31199M5.32524 19.5H5.31199M5.31199 19.5H5.29874M5.31199 19.5H5.29874M5.29874 19.5H5.28549M5.29874 19.5H5.28549M5.28549 19.5H5.27224M5.28549 19.5H5.27224M5.27224 19.5H5.25899M5.27224 19.5H5.25899M5.25899 19.5H5.24574M5.25899 19.5H5.24574M5.24574 19.5H5.23249M5.24574 19.5H5.23249M5.23249 19.5H5.21923M5.23249 19.5H5.21923M5.21923 19.5H5.20598M5.21923 19.5H5.20598M5.20598 19.5H5.19273M5.20598 19.5H5.19273M5.19273 19.5H5.17947M5.19273 19.5H5.17947M5.17947 19.5H5.16622M5.17947 19.5H5.16622M5.16622 19.5H5.15296M5.16622 19.5H5.15296M5.15296 19.5H5.1397M5.15296 19.5H5.1397M5.1397 19.5H5.12644M5.1397 19.5H5.12644M5.12644 19.5H5.11319M5.12644 19.5H5.11319M5.11319 19.5H5.09993M5.11319 19.5H5.09993M5.09993 19.5H5.08666M5.09993 19.5H5.08666M5.08666 19.5H5.0734M5.08666 19.5H5.0734M5.0734 19.5H5.06014M5.0734 19.5H5.06014M5.06014 19.5H5.04687M5.06014 19.5H5.04687M5.04687 19.5H5.03361M5.04687 19.5H5.03361M5.03361 19.5H5.02034M5.03361 19.5H5.02034M5.02034 19.5H5.00707M5.02034 19.5H5.00707M5.00707 19.5H4.9938M5.00707 19.5H4.9938M4.9938 19.5H4.98052M4.9938 19.5H4.98052M4.98052 19.5H4.96725M4.98052 19.5H4.96725M4.96725 19.5H4.95398M4.96725 19.5H4.95398M4.95398 19.5H4.9407M4.95398 19.5H4.9407M4.9407 19.5H4.92742M4.9407 19.5H4.92742M4.92742 19.5H4.91414M4.92742 19.5H4.91414M4.91414 19.5H4.90086M4.91414 19.5H4.90086M4.90086 19.5H4.88757M4.90086 19.5H4.88757M4.88757 19.5H4.87429M4.88757 19.5H4.87429M4.87429 19.5H4.861M4.87429 19.5H4.861M4.861 19.5H4.84771M4.861 19.5H4.84771M4.84771 19.5H4.83442M4.84771 19.5H4.83442M4.83442 19.5H4.82112M4.83442 19.5H4.82112M4.82112 19.5H4.80783M4.82112 19.5H4.80783M4.80783 19.5H4.79453M4.80783 19.5H4.79453M4.79453 19.5H4.78123M4.79453 19.5H4.78123M4.78123 19.5H4.76793M4.78123 19.5H4.76793M4.76793 19.5H4.75462M4.76793 19.5H4.75462M4.75462 19.5H4.74131M4.75462 19.5H4.74131M4.74131 19.5H4.728M4.74131 19.5H4.728M4.728 19.5H4.71469M4.728 19.5H4.71469M4.71469 19.5H4.70138M4.71469 19.5H4.70138M4.70138 19.5H4.68806M4.70138 19.5H4.68806M4.68806 19.5H4.67474M4.68806 19.5H4.67474M4.67474 19.5H4.66142M4.67474 19.5H4.66142M4.66142 19.5H4.64809M4.66142 19.5H4.64809M4.64809 19.5H4.63477M4.64809 19.5H4.63477M4.63477 19.5H4.62144M4.63477 19.5H4.62144M4.62144 19.5H4.6081M4.62144 19.5H4.6081M4.6081 19.5H4.59477M4.6081 19.5H4.59477M4.59477 19.5H4.58143M4.59477 19.5H4.58143M4.58143 19.5H4.56809M4.58143 19.5H4.56809M4.56809 19.5H4.55474M4.56809 19.5H4.55474M4.55474 19.5H4.54139M4.55474 19.5H4.54139M4.54139 19.5H4.52804M4.54139 19.5H4.52804M4.52804 19.5H4.51469M4.52804 19.5H4.51469M4.51469 19.5H4.50133M4.51469 19.5H4.50133M4.50133 19.5H4.48797M4.50133 19.5H4.48797M4.48797 19.5H4.47461M4.48797 19.5H4.47461M4.47461 19.5H4.46124M4.47461 19.5H4.46124M4.46124 19.5H4.44787M4.46124 19.5H4.44787M4.44787 19.5H4.43449M4.44787 19.5H4.43449M4.43449 19.5H4.42112M4.43449 19.5H4.42112M4.42112 19.5H4.40773M4.42112 19.5H4.40773M4.40773 19.5H4.39435M4.40773 19.5H4.39435M4.39435 19.5H4.38096M4.39435 19.5H4.38096M4.38096 19.5H4.36757M4.38096 19.5H4.36757M4.36757 19.5H4.35417M4.36757 19.5H4.35417M4.35417 19.5H4.34209M4.35417 19.5H4.34209M4.34209 19.5H4.33005M4.34209 19.5H4.33005M4.33005 19.5H4.31804M4.33005 19.5H4.31804M4.31804 19.5H4.30607M4.31804 19.5H4.30607M4.30607 19.5H4.29415M4.30607 19.5H4.29415M4.29415 19.5H4.28226M4.29415 19.5H4.28226M4.28226 19.5H4.27041M4.28226 19.5H4.27041M4.27041 19.5H4.2586M4.27041 19.5H4.2586M4.2586 19.5H4.24682M4.2586 19.5H4.24682M4.24682 19.5H4.23509M4.24682 19.5H4.23509M4.23509 19.5H4.22339M4.23509 19.5H4.22339M4.22339 19.5H4.21173M4.22339 19.5H4.21173M4.21173 19.5H4.20011M4.21173 19.5H4.20011M4.20011 19.5H4.18853M4.20011 19.5H4.18853M4.18853 19.5H4.17699M4.18853 19.5H4.17699M4.17699 19.5H4.16548M4.17699 19.5H4.16548M4.16548 19.5H4.15401M4.16548 19.5H4.15401M4.15401 19.5H4.14258M4.15401 19.5H4.14258M4.14258 19.5H4.13119M4.14258 19.5H4.13119M4.13119 19.5H4.11983M4.13119 19.5H4.11983M4.11983 19.5H4.10852M4.11983 19.5H4.10852M4.10852 19.5H4.09723M4.10852 19.5H4.09723M4.09723 19.5H4.08599M4.09723 19.5H4.08599M4.08599 19.5H4.07478M4.08599 19.5H4.07478M4.07478 19.5H4.06361M4.07478 19.5H4.06361M4.06361 19.5H4.05248M4.06361 19.5H4.05248M4.05248 19.5H4.04138M4.05248 19.5H4.04138M4.04138 19.5H4.03032M4.04138 19.5H4.03032M4.03032 19.5H4.0193M4.03032 19.5H4.0193M4.0193 19.5H4.00831M4.0193 19.5H4.00831M4.00831 19.5H3.99736M4.00831 19.5H3.99736M3.99736 19.5H3.98644M3.99736 19.5H3.98644M3.98644 19.5H3.97556M3.98644 19.5H3.97556M3.97556 19.5H3.96472M3.97556 19.5H3.96472M3.96472 19.5H3.95391M3.96472 19.5H3.95391M3.95391 19.5H3.94314M3.95391 19.5H3.94314M3.94314 19.5H3.93241M3.94314 19.5H3.93241M3.93241 19.5H3.92171M3.93241 19.5H3.92171M3.92171 19.5H3.91104M3.92171 19.5H3.91104M3.91104 19.5H3.90041M3.91104 19.5H3.90041M3.90041 19.5H3.88982M3.90041 19.5H3.88982M3.88982 19.5H3.87926M3.88982 19.5H3.87926M3.87926 19.5H3.86873M3.87926 19.5H3.86873M3.86873 19.5H3.85824M3.86873 19.5H3.85824M3.85824 19.5H3.84779M3.85824 19.5H3.84779M3.84779 19.5H3.83737M3.84779 19.5H3.83737M3.83737 19.5H3.82698M3.83737 19.5H3.82698M3.82698 19.5H3.81663M3.82698 19.5H3.81663M3.81663 19.5H3.80632M3.81663 19.5H3.80632M3.80632 19.5H3.79603M3.80632 19.5H3.79603M3.79603 19.5H3.78579M3.79603 19.5H3.78579M3.78579 19.5H3.77557M3.78579 19.5H3.77557M3.77557 19.5H3.76539M3.77557 19.5H3.76539M3.76539 19.5H3.75525M3.76539 19.5H3.75525M3.75525 19.5H3.74514M3.75525 19.5H3.74514M3.74514 19.5H3.73506M3.74514 19.5H3.73506M3.73506 19.5H3.72501M3.73506 19.5H3.72501M3.72501 19.5H3.715M3.72501 19.5H3.715M3.715 19.5H3.70502M3.715 19.5H3.70502M3.70502 19.5H3.69508M3.70502 19.5H3.69508M3.69508 19.5H3.68516M3.69508 19.5H3.68516M3.68516 19.5H3.67529M3.68516 19.5H3.67529M3.67529 19.5H3.66544M3.67529 19.5H3.66544M3.66544 19.5H3.65563M3.66544 19.5H3.65563M3.65563 19.5H3.64585M3.65563 19.5H3.64585M3.64585 19.5H3.6361M3.64585 19.5H3.6361M3.6361 19.5H3.62638M3.6361 19.5H3.62638M3.62638 19.5H3.6167M3.62638 19.5H3.6167M3.6167 19.5H3.60705M3.6167 19.5H3.60705M3.60705 19.5H3.59743M3.60705 19.5H3.59743M3.59743 19.5H3.58785M3.59743 19.5H3.58785M3.58785 19.5H3.57829M3.58785 19.5H3.57829M3.57829 19.5H3.56877M3.57829 19.5H3.56877M3.56877 19.5H3.55928M3.56877 19.5H3.55928M3.55928 19.5H3.54982M3.55928 19.5H3.54982M3.54982 19.5H3.5404M3.54982 19.5H3.5404M3.5404 19.5H3.531M3.5404 19.5H3.531M3.531 19.5H3.52164M3.531 19.5H3.52164M3.52164 19.5H3.5123M3.52164 19.5H3.5123M3.5123 19.5H3.503M3.5123 19.5H3.503M3.503 19.5H3.49373M3.503 19.5H3.49373M3.49373 19.5H3.48449M3.49373 19.5H3.48449M3.48449 19.5H3.47528M3.48449 19.5H3.47528M3.47528 19.5H3.46611M3.47528 19.5H3.46611M3.46611 19.5H3.45696M3.46611 19.5H3.45696M3.45696 19.5H3.44784M3.45696 19.5H3.44784M3.44784 19.5H3.43876M3.44784 19.5H3.43876M3.43876 19.5H3.4297M3.43876 19.5H3.4297M3.4297 19.5H3.42067M3.4297 19.5H3.42067M3.42067 19.5H3.41168M3.42067 19.5H3.41168M3.41168 19.5H3.40271M3.41168 19.5H3.40271M3.40271 19.5H3.39378M3.40271 19.5H3.39378M3.39378 19.5H3.38487M3.39378 19.5H3.38487M3.38487 19.5H3.376M3.38487 19.5H3.376M3.376 19.5H3.36715M3.376 19.5H3.36715M3.36715 19.5H3.35833M3.36715 19.5H3.35833M3.35833 19.5H3.34955M3.35833 19.5H3.34955M3.34955 19.5H3.34079M3.34955 19.5H3.34079M3.34079 19.5H3.33206M3.34079 19.5H3.33206M3.33206 19.5H3.32336M3.33206 19.5H3.32336M3.32336 19.5H3.31469M3.32336 19.5H3.31469M3.31469 19.5H3.30605M3.31469 19.5H3.30605M3.30605 19.5H3.29743M3.30605 19.5H3.29743M3.29743 19.5H3.28885M3.29743 19.5H3.28885M3.28885 19.5H3.28029M3.28885 19.5H3.28029M3.28029 19.5H3.27177M3.28029 19.5H3.27177M3.27177 19.5H3.26327M3.27177 19.5H3.26327M3.26327 19.5H3.2548M3.26327 19.5H3.2548M3.2548 19.5H3.24635M3.2548 19.5H3.24635M3.24635 19.5H3.23794M3.24635 19.5H3.23794M3.23794 19.5H3.22955M3.23794 19.5H3.22955M3.22955 19.5H3.2212M3.22955 19.5H3.2212M3.2212 19.5H3.21286M3.2212 19.5H3.21286M3.21286 19.5H3.20456M3.21286 19.5H3.20456M3.20456 19.5H3.19629M3.20456 19.5H3.19629M3.19629 19.5H3.18804M3.19629 19.5H3.18804M3.18804 19.5H3.17982M3.18804 19.5H3.17982M3.17982 19.5H3.17162M3.17982 19.5H3.17162M3.17162 19.5H3.16346M3.17162 19.5H3.16346M3.16346 19.5H3.15532M3.16346 19.5H3.15532M3.15532 19.5H3.14721M3.15532 19.5H3.14721M3.14721 19.5H3.13912M3.14721 19.5H3.13912M3.13912 19.5H3.13106M3.13912 19.5H3.13106M3.13106 19.5H3.12303M3.13106 19.5H3.12303M3.12303 19.5H3.11502M3.12303 19.5H3.11502M3.11502 19.5H3.10705M3.11502 19.5H3.10705M3.10705 19.5H3.09909M3.10705 19.5H3.09909M3.09909 19.5H3.09117M3.09909 19.5H3.09117M3.09117 19.5H3.08327M3.09117 19.5H3.08327M3.08327 19.5H3.07539M3.08327 19.5H3.07539M3.07539 19.5H3.06754M3.07539 19.5H3.06754M3.06754 19.5H3.05972M3.06754 19.5H3.05972M3.05972 19.5H3.05192M3.05972 19.5H3.05192M3.05192 19.5H3.04415M3.05192 19.5H3.04415M3.04415 19.5H3.03641M3.04415 19.5H3.03641M3.03641 19.5H3.02868M3.03641 19.5H3.02868M3.02868 19.5H3.02099M3.02868 19.5H3.02099M3.02099 19.5H3.01332M3.02099 19.5H3.01332M3.01332 19.5H3.00567M3.01332 19.5H3.00567M3.00567 19.5H2.99805M3.00567 19.5H2.99805M2.99805 19.5H2.99046M2.99805 19.5H2.99046M2.99046 19.5H2.98289M2.99046 19.5H2.98289M2.98289 19.5H2.97534M2.98289 19.5H2.97534M2.97534 19.5H2.96782M2.97534 19.5H2.96782M2.96782 19.5H2.96032M2.96782 19.5H2.96032M2.96032 19.5H2.95285M2.96032 19.5H2.95285M2.95285 19.5H2.9454M2.95285 19.5H2.9454M2.9454 19.5H2.93798M2.9454 19.5H2.93798M2.93798 19.5H2.93058M2.93798 19.5H2.93058M2.93058 19.5H2.9232M2.93058 19.5H2.9232M2.9232 19.5H2.91585M2.9232 19.5H2.91585M2.91585 19.5H2.90852M2.91585 19.5H2.90852M2.90852 19.5H2.90122M2.90852 19.5H2.90122M2.90122 19.5H2.89394M2.90122 19.5H2.89394M2.89394 19.5H2.88668M2.89394 19.5H2.88668M2.88668 19.5H2.87944M2.88668 19.5H2.87944M2.87944 19.5H2.87223M2.87944 19.5H2.87223M2.87223 19.5H2.86504M2.87223 19.5H2.86504M2.86504 19.5H2.85788M2.86504 19.5H2.85788M2.85788 19.5H2.85074M2.85788 19.5H2.85074M2.85074 19.5H2.84362M2.85074 19.5H2.84362M2.84362 19.5H2.83652M2.84362 19.5H2.83652M2.83652 19.5H2.82944M2.83652 19.5H2.82944M2.82944 19.5H2.82239M2.82944 19.5H2.82239M2.82239 19.5H2.81536M2.82239 19.5H2.81536M2.81536 19.5H2.80836M2.81536 19.5H2.80836M2.80836 19.5H2.80137M2.80836 19.5H2.80137M2.80137 19.5H2.79441M2.80137 19.5H2.79441M2.79441 19.5H2.78747M2.79441 19.5H2.78747M2.78747 19.5H2.78055M2.78747 19.5H2.78055M2.78055 19.5H2.77365M2.78055 19.5H2.77365M2.77365 19.5H2.76677M2.77365 19.5H2.76677M2.76677 19.5H2.75992M2.76677 19.5H2.75992M2.75992 19.5H2.75309M2.75992 19.5H2.75309M2.75309 19.5H2.74628M2.75309 19.5H2.74628M2.74628 19.5H2.73949M2.74628 19.5H2.73949M2.73949 19.5H2.73272M2.73949 19.5H2.73272M2.73272 19.5H2.72597M2.73272 19.5H2.72597M2.72597 19.5H2.71924M2.72597 19.5H2.71924M2.71924 19.5H2.71254M2.71924 19.5H2.71254M2.71254 19.5H2.70585M2.71254 19.5H2.70585M2.70585 19.5H2.69918M2.70585 19.5H2.69918M2.69918 19.5H2.69254M2.69918 19.5H2.69254M2.69254 19.5H2.68592M2.69254 19.5H2.68592M2.68592 19.5H2.67931M2.68592 19.5H2.67931M2.67931 19.5H2.67273M2.67931 19.5H2.67273M2.67273 19.5H2.66617M2.67273 19.5H2.66617M2.66617 19.5H2.65962M2.66617 19.5H2.65962M2.65962 19.5H2.6531M2.65962 19.5H2.6531M2.6531 19.5H2.6466M2.6531 19.5H2.6466M2.6466 19.5H2.64011M2.6466 19.5H2.64011M2.64011 19.5H2.63365M2.64011 19.5H2.63365M2.63365 19.5H2.6272M2.63365 19.5H2.6272M2.6272 19.5H2.62078M2.6272 19.5H2.62078M2.62078 19.5H2.61437M2.62078 19.5H2.61437M2.61437 19.5H2.60798M2.61437 19.5H2.60798M2.60798 19.5H2.60162M2.60798 19.5H2.60162M2.60162 19.5H2.59527M2.60162 19.5H2.59527M2.59527 19.5H2.58894M2.59527 19.5H2.58894M2.58894 19.5H2.58263M2.58894 19.5H2.58263M2.58263 19.5H2.57633M2.58263 19.5H2.57633M2.57633 19.5H2.57006M2.57633 19.5H2.57006M2.57006 19.5H2.5638M2.57006 19.5H2.5638M2.5638 19.5H2.55756M2.5638 19.5H2.55756M2.55756 19.5H2.55135M2.55756 19.5H2.55135M2.55135 19.5H2.54514M2.55135 19.5H2.54514M2.54514 19.5H2.53896M2.54514 19.5H2.53896M2.53896 19.5H2.5328M2.53896 19.5H2.5328M2.5328 19.5H2.52665M2.5328 19.5H2.52665M2.52665 19.5H2.52052M2.52665 19.5H2.52052M2.52052 19.5H2.51441M2.52052 19.5H2.51441M2.51441 19.5H2.50831M2.51441 19.5H2.50831M2.50831 19.5H2.50224M2.50831 19.5H2.50224M2.50224 19.5H2.49618M2.50224 19.5H2.49618M2.49618 19.5H2.49013M2.49618 19.5H2.49013M2.49013 19.5H2.48411M2.49013 19.5H2.48411M2.48411 19.5H2.4781M2.48411 19.5H2.4781M2.4781 19.5H2.47211M2.4781 19.5H2.47211M2.47211 19.5H2.46613M2.47211 19.5H2.46613M2.46613 19.5H2.46018M2.46613 19.5H2.46018M2.46018 19.5H2.45424M2.46018 19.5H2.45424M2.45424 19.5H2.44831M2.45424 19.5H2.44831M2.44831 19.5H2.4424M2.44831 19.5H2.4424M2.4424 19.5H2.43651M2.4424 19.5H2.43651M2.43651 19.5H2.43063M2.43651 19.5H2.43063M2.43063 19.5H2.42477M2.43063 19.5H2.42477M2.42477 19.5H2.41893M2.42477 19.5H2.41893M2.41893 19.5H2.4131M2.41893 19.5H2.4131M2.4131 19.5H2.40729M2.4131 19.5H2.40729M2.40729 19.5H2.40149M2.40729 19.5H2.40149M2.40149 19.5H2.39571M2.40149 19.5H2.39571M2.39571 19.5H2.38994M2.39571 19.5H2.38994M2.38994 19.5H2.38419M2.38994 19.5H2.38419M2.38419 19.5H2.37846M2.38419 19.5H2.37846M2.37846 19.5H2.37274M2.37846 19.5H2.37274M2.37274 19.5H2.36703M2.37274 19.5H2.36703M2.36703 19.5H2.36134M2.36703 19.5H2.36134M2.36134 19.5H2.35567M2.36134 19.5H2.35567M2.35567 19.5H2.35001M2.35567 19.5H2.35001M2.35001 19.5H2.34436M2.35001 19.5H2.34436M2.34436 19.5H2.33873M2.34436 19.5H2.33873M2.33873 19.5H2.33311M2.33873 19.5H2.33311M2.33311 19.5H2.32751M2.33311 19.5H2.32751M2.32751 19.5H2.32192M2.32751 19.5H2.32192M2.32192 19.5H2.31635M2.32192 19.5H2.31635M2.31635 19.5H2.31079M2.31635 19.5H2.31079M2.31079 19.5H2.30524M2.31079 19.5H2.30524M2.30524 19.5H2.29971M2.30524 19.5H2.29971M2.29971 19.5H2.29419M2.29971 19.5H2.29419M2.29419 19.5H2.28868M2.29419 19.5H2.28868M2.28868 19.5H2.28319M2.28868 19.5H2.28319M2.28319 19.5H2.27771M2.28319 19.5H2.27771M2.27771 19.5H2.27225M2.27771 19.5H2.27225M2.27225 19.5H2.26679M2.27225 19.5H2.26679M2.26679 19.5H2.26135M2.26679 19.5H2.26135M2.26135 19.5H2.25593M2.26135 19.5H2.25593M2.25593 19.5H2.25052M2.25593 19.5H2.25052M2.25052 19.5H2.24511M2.25052 19.5H2.24511M2.24511 19.5H2.23973M2.24511 19.5H2.23973M2.23973 19.5H2.23435M2.23973 19.5H2.23435M2.23435 19.5H2.22899M2.23435 19.5H2.22899M2.22899 19.5H2.22364M2.22899 19.5H2.22364M2.22364 19.5H2.2183M2.22364 19.5H2.2183M2.2183 19.5H2.21297M2.2183 19.5H2.21297M2.21297 19.5H2.20766M2.21297 19.5H2.20766M2.20766 19.5H2.20236M2.20766 19.5H2.20236M2.20236 19.5H2.19707M2.20236 19.5H2.19707M2.19707 19.5H2.19179M2.19707 19.5H2.19179M2.19179 19.5H2.18652M2.19179 19.5H2.18652M2.18652 19.5H2.18126M2.18652 19.5H2.18126M2.18126 19.5H2.17602M2.18126 19.5H2.17602M2.17602 19.5H2.17079M2.17602 19.5H2.17079M2.17079 19.5H2.16557M2.17079 19.5H2.16557M2.16557 19.5H2.16035M2.16557 19.5H2.16035M2.16035 19.5H2.15515M2.16035 19.5H2.15515M2.15515 19.5H2.14997M2.15515 19.5H2.14997M2.14997 19.5H2.14479M2.14997 19.5H2.14479M2.14479 19.5H2.13962M2.14479 19.5H2.13962M2.13962 19.5H2.13446M2.13962 19.5H2.13446M2.13446 19.5H2.12932M2.13446 19.5H2.12932M2.12932 19.5H2.12418M2.12932 19.5H2.12418M2.12418 19.5H2.11906M2.12418 19.5H2.11906M2.11906 19.5H2.11394M2.11906 19.5H2.11394M2.11394 19.5H2.10884M2.11394 19.5H2.10884M2.10884 19.5H2.10374M2.10884 19.5H2.10374M2.10374 19.5H2.09865M2.10374 19.5H2.09865M2.09865 19.5H2.09358M2.09865 19.5H2.09358M2.09358 19.5H2.08851M2.09358 19.5H2.08851M2.08851 19.5H2.08346M2.08851 19.5H2.08346M2.08346 19.5H2.07841M2.08346 19.5H2.07841M2.07841 19.5H2.07337M2.07841 19.5H2.07337M2.07337 19.5H2.06834M2.07337 19.5H2.06834M2.06834 19.5H2.06332M2.06834 19.5H2.06332M2.06332 19.5H2.05831M2.06332 19.5H2.05831M2.05831 19.5H2.05331M2.05831 19.5H2.05331M2.05331 19.5H2.04832M2.05331 19.5H2.04832M2.04832 19.5H2.04333M2.04832 19.5H2.04333M2.04333 19.5H2.03836M2.04333 19.5H2.03836M2.03836 19.5H2.03339M2.03836 19.5H2.03339M2.03339 19.5H2.02843M2.03339 19.5H2.02843M2.02843 19.5H2.02348M2.02843 19.5H2.02348M2.02348 19.5H2.01854M2.02348 19.5H2.01854M2.01854 19.5H2.01361M2.01854 19.5H2.01361M2.01361 19.5H2.00868M2.01361 19.5H2.00868M2.00868 19.5H2.00376M2.00868 19.5H2.00376M2.00376 19.5H1.99885M2.00376 19.5H1.99885M1.99885 19.5H1.99395M1.99885 19.5H1.99395M1.99395 19.5H1.98905M1.99395 19.5H1.98905M1.98905 19.5H1.98417M1.98905 19.5H1.98417M1.98417 19.5H1.97929M1.98417 19.5H1.97929M1.97929 19.5H1.97441M1.97929 19.5H1.97441M1.97441 19.5H1.96955M1.97441 19.5H1.96955M1.96955 19.5H1.96469M1.96955 19.5H1.96469M1.96469 19.5H1.95984M1.96469 19.5H1.95984M1.95984 19.5H1.95499M1.95984 19.5H1.95499M1.95499 19.5H1.95015M1.95499 19.5H1.95015M1.95015 19.5H1.94532M1.95015 19.5H1.94532M1.94532 19.5H1.9405M1.94532 19.5H1.9405M1.9405 19.5H1.93568M1.9405 19.5H1.93568M1.93568 19.5H1.93087M1.93568 19.5H1.93087M1.93087 19.5H1.92606M1.93087 19.5H1.92606M1.92606 19.5H1.92126M1.92606 19.5H1.92126M1.92126 19.5H1.91647M1.92126 19.5H1.91647M1.91647 19.5H1.91168M1.91647 19.5H1.91168M1.91168 19.5H1.9069M1.91168 19.5H1.9069M1.9069 19.5H1.90212M1.9069 19.5H1.90212M1.90212 19.5H1.89735M1.90212 19.5H1.89735M1.89735 19.5H1.89258M1.89735 19.5H1.89258M1.89258 19.5H1.88783M1.89258 19.5H1.88783M1.88783 19.5H1.88307M1.88783 19.5H1.88307M1.88307 19.5H1.87832M1.88307 19.5H1.87832M1.87832 19.5H1.87358M1.87832 19.5H1.87358M1.87358 19.5H1.86884M1.87358 19.5H1.86884M1.86884 19.5H1.8641M1.86884 19.5H1.8641M1.8641 19.5H1.85937M1.8641 19.5H1.85937M1.85937 19.5H1.85465M1.85937 19.5H1.85465M1.85465 19.5H1.84993M1.85465 19.5H1.84993M1.84993 19.5H1.84521M1.84993 19.5H1.84521M1.84521 19.5H1.8405M1.84521 19.5H1.8405M1.8405 19.5H1.83579M1.8405 19.5H1.83579M1.83579 19.5H1.83109M1.83579 19.5H1.83109M1.83109 19.5H1.82639M1.83109 19.5H1.82639M1.82639 19.5H1.8217M1.82639 19.5H1.8217M1.8217 19.5H1.817M1.8217 19.5H1.817M1.817 19.5H1.81232M1.817 19.5H1.81232M1.81232 19.5H1.80763M1.81232 19.5H1.80763M1.80763 19.5H1.80295M1.80763 19.5H1.80295M1.80295 19.5H1.79828M1.80295 19.5H1.79828M1.79828 19.5H1.7936M1.79828 19.5H1.7936M1.7936 19.5H1.78893M1.7936 19.5H1.78893M1.78893 19.5H1.78426M1.78893 19.5H1.78426M1.78426 19.5H1.7796M1.78426 19.5H1.7796M1.7796 19.5H1.77494M1.7796 19.5H1.77494M1.77494 19.5H1.77028M1.77494 19.5H1.77028M1.77028 19.5H1.76562M1.77028 19.5H1.76562M1.76562 19.5H1.76097M1.76562 19.5H1.76097M1.76097 19.5H1.75632M1.76097 19.5H1.75632M1.75632 19.5H1.75167M1.75632 19.5H1.75167M1.75167 19.5H1.74703M1.75167 19.5H1.74703M1.74703 19.5H1.74238M1.74703 19.5H1.74238M1.74238 19.5H1.73774M1.74238 19.5H1.73774M1.73774 19.5H1.7331M1.73774 19.5H1.7331M1.7331 19.5H1.72846M1.7331 19.5H1.72846M1.72846 19.5H1.72383M1.72846 19.5H1.72383M1.72383 19.5H1.71919M1.72383 19.5H1.71919M1.71919 19.5H1.71456M1.71919 19.5H1.71456M1.71456 19.5H1.70993M1.71456 19.5H1.70993M1.70993 19.5H1.7053M1.70993 19.5H1.7053M1.7053 19.5H1.70067M1.7053 19.5H1.70067M1.70067 19.5H1.69604M1.70067 19.5H1.69604M1.69604 19.5H1.69142M1.69604 19.5H1.69142M1.69142 19.5H1.68679M1.69142 19.5H1.68679M1.68679 19.5H1.68217M1.68679 19.5H1.68217M1.68217 19.5H1.67754M1.68217 19.5H1.67754M1.67754 19.5H1.67292M1.67754 19.5H1.67292M1.67292 19.5H1.6683M1.67292 19.5H1.6683M1.6683 19.5H1.66367M1.6683 19.5H1.66367M1.66367 19.5H1.65905M1.66367 19.5H1.65905M1.65905 19.5H1.65443M1.65905 19.5H1.65443M1.65443 19.5H1.64981M1.65443 19.5H1.64981M1.64981 19.5H1.64519M1.64981 19.5H1.64519M1.64519 19.5H1.64056M1.64519 19.5H1.64056M1.64056 19.5H1.63594M1.64056 19.5H1.63594M1.63594 19.5H1.63132M1.63594 19.5H1.63132M1.63132 19.5H1.6267M1.63132 19.5H1.6267M1.6267 19.5H1.62207M1.6267 19.5H1.62207M1.62207 19.5H1.61745M1.62207 19.5H1.61745M1.61745 19.5H1.61283M1.61745 19.5H1.61283M1.61283 19.5H1.6082M1.61283 19.5H1.6082M1.6082 19.5H1.60357M1.6082 19.5H1.60357M1.60357 19.5H1.59895M1.60357 19.5H1.59895M1.59895 19.5H1.59432M1.59895 19.5H1.59432M1.59432 19.5H1.58969M1.59432 19.5H1.58969M1.58969 19.5H1.58506M1.58969 19.5H1.58506M1.58506 19.5H1.58043M1.58506 19.5H1.58043M1.58043 19.5H1.57579M1.58043 19.5H1.57579M1.57579 19.5H1.57116M1.57579 19.5H1.57116M1.57116 19.5H1.56652M1.57116 19.5H1.56652M1.56652 19.5H1.56188M1.56652 19.5H1.56188M1.56188 19.5H1.55724M1.56188 19.5H1.55724M1.55724 19.5H1.5526M1.55724 19.5H1.5526M1.5526 19.5H1.54795M1.5526 19.5H1.54795M1.54795 19.5H1.5433M1.54795 19.5H1.5433M1.5433 19.5H1.53865M1.5433 19.5H1.53865M1.53865 19.5H1.534M1.53865 19.5H1.534M1.534 19.5H1.52935M1.534 19.5H1.52935M1.52935 19.5H1.52469M1.52935 19.5H1.52469M1.52469 19.5H1.52003M1.52469 19.5H1.52003M1.52003 19.5H1.51536M1.52003 19.5H1.51536M1.51536 19.5H1.5107M1.51536 19.5H1.5107M1.5107 19.5H1.50603M1.5107 19.5H1.50603M1.50603 19.5H1.50136M1.50603 19.5H1.50136M1.50136 19.5H1.49668M1.50136 19.5H1.49668M1.49668 19.5H1.492M1.49668 19.5H1.492M1.492 19.5H1.48732M1.492 19.5H1.48732M1.48732 19.5H1.48263M1.48732 19.5H1.48263M1.48263 19.5H1.47794M1.48263 19.5H1.47794M1.47794 19.5H1.47325M1.47794 19.5H1.47325M1.47325 19.5H1.46855M1.47325 19.5H1.46855M1.46855 19.5H1.46385M1.46855 19.5H1.46385M1.46385 19.5H1.45914M1.46385 19.5H1.45914M1.45914 19.5H1.45443M1.45914 19.5H1.45443M1.45443 19.5H1.44972M1.45443 19.5H1.44972M1.44972 19.5H1.445M1.44972 19.5H1.445M1.445 19.5H1.44028M1.445 19.5H1.44028M1.44028 19.5H1.43555M1.44028 19.5H1.43555M1.43555 19.5H1.43081M1.43555 19.5H1.43081M1.43081 19.5H1.42608M1.43081 19.5H1.42608M1.42608 19.5H1.42133M1.42608 19.5H1.42133M1.42133 19.5H1.41659M1.42133 19.5H1.41659M1.41659 19.5H1.41183M1.41659 19.5H1.41183M1.41183 19.5H1.40707M1.41183 19.5H1.40707M1.40707 19.5H1.40231M1.40707 19.5H1.40231M1.40231 19.5H1.39754M1.40231 19.5H1.39754M1.39754 19.5H1.39277M1.39754 19.5H1.39277M1.39277 19.5H1.38799M1.39277 19.5H1.38799M1.38799 19.5H1.3832M1.38799 19.5H1.3832M1.3832 19.5H1.37841M1.3832 19.5H1.37841M1.37841 19.5H1.37361M1.37841 19.5H1.37361M1.37361 19.5H1.36881M1.37361 19.5H1.36881M1.36881 19.5H1.364M1.36881 19.5H1.364M1.364 19.5H1.35918M1.364 19.5H1.35918M1.35918 19.5H1.35436M1.35918 19.5H1.35436M1.35436 19.5H1.34953M1.35436 19.5H1.34953M1.34953 19.5H1.34469M1.34953 19.5H1.34469M1.34469 19.5H1.33985M1.34469 19.5H1.33985M1.33985 19.5H1.335M1.33985 19.5H1.335M1.335 19.5H1.33014M1.335 19.5H1.33014M1.33014 19.5H1.32528M1.33014 19.5H1.32528M1.32528 19.5H1.32041M1.32528 19.5H1.32041M1.32041 19.5H1.31553M1.32041 19.5H1.31553M1.31553 19.5H1.31065M1.31553 19.5H1.31065M1.31065 19.5H1.30575M1.31065 19.5H1.30575M1.30575 19.5H1.30085M1.30575 19.5H1.30085M1.30085 19.5H1.29595M1.30085 19.5H1.29595M1.29595 19.5H1.29103M1.29595 19.5H1.29103M1.29103 19.5H1.28611M1.29103 19.5H1.28611M1.28611 19.5H1.28118M1.28611 19.5H1.28118M1.28118 19.5H1.27624M1.28118 19.5H1.27624M1.27624 19.5H1.27129M1.27624 19.5H1.27129M1.27129 19.5H1.26633M1.27129 19.5H1.26633M1.26633 19.5H1.26137M1.26633 19.5H1.26137M1.26137 19.5H1.2564M1.26137 19.5H1.2564M1.2564 19.5H1.25141M1.2564 19.5H1.25141M1.25141 19.5H1.24642M1.25141 19.5H1.24642M1.24642 19.5H1.24143M1.24642 19.5H1.24143M1.24143 19.5H1.23642M1.24143 19.5H1.23642M1.23642 19.5H1.2314M1.23642 19.5H1.2314M1.2314 19.5H1.22638M1.2314 19.5H1.22638M1.22638 19.5H1.22134M1.22638 19.5H1.22134M1.22134 19.5H1.2163M1.22134 19.5H1.2163M1.2163 19.5H1.21124M1.2163 19.5H1.21124M1.21124 19.5H1.20618M1.21124 19.5H1.20618M1.20618 19.5H1.20111M1.20618 19.5H1.20111M1.20111 19.5H1.19603M1.20111 19.5H1.19603M1.19603 19.5H1.19093M1.19603 19.5H1.19093M1.19093 19.5H1.18583M1.19093 19.5H1.18583M1.18583 19.5H1.18072M1.18583 19.5H1.18072M1.18072 19.5H1.1756M1.18072 19.5H1.1756M1.1756 19.5H1.17046M1.1756 19.5H1.17046M1.17046 19.5H1.16532M1.17046 19.5H1.16532M1.16532 19.5H1.16017M1.16532 19.5H1.16017M1.16017 19.5H1.155M1.16017 19.5H1.155M1.155 19.5H1.14983M1.155 19.5H1.14983M1.14983 19.5H1.14464M1.14983 19.5H1.14464M1.14464 19.5H1.13945M1.14464 19.5H1.13945M1.13945 19.5H1.13424M1.13945 19.5H1.13424M1.13424 19.5H1.12902M1.13424 19.5H1.12902M1.12902 19.5H1.12379M1.12902 19.5H1.12379M1.12379 19.5H1.11855M1.12379 19.5H1.11855M1.11855 19.5H1.1133M1.11855 19.5H1.1133M1.1133 19.5H1.10804M1.1133 19.5H1.10804M1.10804 19.5H1.10276M1.10804 19.5H1.10276M1.10276 19.5H1.09747M1.10276 19.5H1.09747M1.09747 19.5H1.09218M1.09747 19.5H1.09218M1.09218 19.5H1.08687M1.09218 19.5H1.08687M1.08687 19.5H1.08154M1.08687 19.5H1.08154M1.08154 19.5H1.07621M1.08154 19.5H1.07621M1.07621 19.5H1.07086M1.07621 19.5H1.07086M1.07086 19.5H1.0655M1.07086 19.5H1.0655M1.0655 19.5H1.06013M1.0655 19.5H1.06013M1.06013 19.5H1.05475M1.06013 19.5H1.05475M1.05475 19.5H1.04935M1.05475 19.5H1.04935M1.04935 19.5H1.04394M1.04935 19.5H1.04394M1.04394 19.5H1.03852M1.04394 19.5H1.03852M1.03852 19.5H1.03308M1.03852 19.5H1.03308M1.03308 19.5H1.02764M1.03308 19.5H1.02764M1.02764 19.5H1.02218M1.02764 19.5H1.02218M1.02218 19.5H1.0167M1.02218 19.5H1.0167M1.0167 19.5H1.01121M1.0167 19.5H1.01121M1.01121 19.5H1.00571M1.01121 19.5H1.00571M1.00571 19.5H1.0002M1.00571 19.5H1.0002M1.0002 19.5C0.85937 19.5 0.739164 19.4422 0.664115 19.3628L1.0002 19.5Z" stroke="#99BBC6"/>
</svg>
