<svg width="20" height="20" viewBox="0 0 20 20" fill="none" xmlns="http://www.w3.org/2000/svg">
<path d="M4.0376 13.1537C6.01025 15.4868 8.38489 17.3237 11.0952 18.6235C12.1271 19.1073 13.5071 19.6814 15.0446 19.7798C15.14 19.7839 15.2311 19.788 15.3265 19.788C16.3584 19.788 17.1872 19.4353 17.8627 18.7096C17.8669 18.7055 17.8751 18.6973 17.8793 18.6891C18.1197 18.4021 18.3932 18.1437 18.6791 17.869C18.8739 17.6845 19.0728 17.4918 19.2635 17.295C20.1462 16.3847 20.1462 15.2284 19.2552 14.3469L16.7645 11.8826C16.3418 11.448 15.8362 11.2184 15.3057 11.2184C14.7753 11.2184 14.2655 11.448 13.8304 11.8785L12.3468 13.3464C12.21 13.2685 12.0691 13.1988 11.9365 13.1332C11.7707 13.0512 11.6174 12.9733 11.4806 12.8872C10.1296 12.0384 8.90292 10.9314 7.7301 9.50855C7.13748 8.7664 6.73963 8.14316 6.46197 7.50762C6.85153 7.15909 7.21622 6.79417 7.56848 6.43744C7.6928 6.31033 7.82127 6.18323 7.94975 6.05612C8.39732 5.61329 8.63769 5.10075 8.63769 4.58002C8.63769 4.05928 8.40147 3.54674 7.94975 3.10391L6.71477 1.88203C6.56972 1.73852 6.43296 1.59911 6.29206 1.4556C6.01854 1.17678 5.73259 0.889761 5.45078 0.631444C5.02393 0.217315 4.52248 0 3.99202 0C3.4657 0 2.96011 0.217315 2.51668 0.635544L0.966738 2.16905C0.403124 2.72669 0.0840195 3.40323 0.017712 4.18639C-0.0610281 5.16636 0.121318 6.20783 0.593758 7.46661C1.319 9.41425 2.41307 11.2225 4.0376 13.1537ZM1.0289 4.27249C1.07863 3.72716 1.28999 3.27203 1.68783 2.8784L3.22948 1.35309C3.46985 1.12348 3.73508 1.00457 3.99202 1.00457C4.24481 1.00457 4.50176 1.12348 4.73798 1.36129C5.01564 1.61551 5.27673 1.88203 5.55853 2.16495C5.69944 2.30846 5.84448 2.45197 5.98953 2.59958L7.22451 3.82146C7.48145 4.07568 7.61406 4.334 7.61406 4.58822C7.61406 4.84243 7.48145 5.10075 7.22451 5.35497C7.09604 5.48208 6.96757 5.61329 6.8391 5.7404C6.45368 6.12582 6.09314 6.49075 5.69529 6.83927C5.687 6.84747 5.68286 6.85157 5.67457 6.85977C5.3306 7.2001 5.38447 7.52402 5.46736 7.77004C5.4715 7.78234 5.47565 7.79054 5.47979 7.80284C5.7989 8.56139 6.24233 9.28304 6.93441 10.1441C8.17768 11.6612 9.48725 12.838 10.9294 13.7441C11.1076 13.859 11.2983 13.9492 11.4765 14.0394C11.6422 14.1214 11.7956 14.1993 11.9323 14.2854C11.9489 14.2936 11.9613 14.3018 11.9779 14.31C12.1147 14.3797 12.2473 14.4125 12.3799 14.4125C12.7115 14.4125 12.927 14.2034 12.9974 14.1337L14.5473 12.6002C14.7877 12.3624 15.0488 12.2352 15.3057 12.2352C15.6207 12.2352 15.8776 12.428 16.0393 12.6002L18.5382 15.0685C19.0355 15.5606 19.0314 16.0936 18.5258 16.6143C18.3517 16.7989 18.1694 16.9752 17.9746 17.1597C17.6845 17.4385 17.382 17.7255 17.1085 18.0494C16.6319 18.5579 16.0641 18.7957 15.3306 18.7957C15.2601 18.7957 15.1856 18.7916 15.1151 18.7875C13.7558 18.7014 12.4918 18.1766 11.5428 17.7296C8.96508 16.4954 6.70234 14.7446 4.82501 12.5223C3.27921 10.6812 2.23901 8.96732 1.55107 7.13039C1.12422 6.00281 0.962594 5.09665 1.0289 4.27249Z" fill="#99BBC6"/>
</svg>
