<svg width="299" height="368" viewBox="0 0 299 368" fill="none" xmlns="http://www.w3.org/2000/svg">
<path d="M33.4316 342.942L41.5534 350.548C40.9598 351.108 40.3659 351.001 39.6532 350.872L33.3578 349.853L33.1684 361.08C32.8892 362.885 31.7342 363.163 29.7955 361.717L2.58616 340.982L2.58374 340.981C0.18355 339.155 0.276988 337.468 1.81393 337.021L35.3128 327.704C37.6096 327.08 38.7046 328.261 37.9738 329.954L34.6222 337.745L10.4911 338.88C9.32553 338.903 9.06103 339.748 10.0699 339.874L33.4316 342.942Z" fill="#2DAFD7"/>
<path d="M239 1C258.5 17.3333 294.767 60.7936 298 107.5C303.921 193.048 249.36 241.895 180.5 293C123.374 335.397 87.3333 338 49 345" stroke="#2DAFD7" stroke-dasharray="10 20"/>
</svg>
